%TF.GenerationSoftware,KiCad,Pcbnew,(6.0.2)*%
%TF.CreationDate,2022-05-16T06:01:07+03:00*%
%TF.ProjectId,FLIM_detector,464c494d-5f64-4657-9465-63746f722e6b,rev?*%
%TF.SameCoordinates,Original*%
%TF.FileFunction,Legend,Top*%
%TF.FilePolarity,Positive*%
%FSLAX46Y46*%
G04 Gerber Fmt 4.6, Leading zero omitted, Abs format (unit mm)*
G04 Created by KiCad (PCBNEW (6.0.2)) date 2022-05-16 06:01:07*
%MOMM*%
%LPD*%
G01*
G04 APERTURE LIST*
%ADD10C,0.150000*%
%ADD11C,0.120000*%
G04 APERTURE END LIST*
D10*
%TO.C,R1*%
X248033333Y-43452380D02*
X247700000Y-42976190D01*
X247461904Y-43452380D02*
X247461904Y-42452380D01*
X247842857Y-42452380D01*
X247938095Y-42500000D01*
X247985714Y-42547619D01*
X248033333Y-42642857D01*
X248033333Y-42785714D01*
X247985714Y-42880952D01*
X247938095Y-42928571D01*
X247842857Y-42976190D01*
X247461904Y-42976190D01*
X248985714Y-43452380D02*
X248414285Y-43452380D01*
X248700000Y-43452380D02*
X248700000Y-42452380D01*
X248604761Y-42595238D01*
X248509523Y-42690476D01*
X248414285Y-42738095D01*
%TO.C,C4*%
X263233333Y-49757142D02*
X263185714Y-49804761D01*
X263042857Y-49852380D01*
X262947619Y-49852380D01*
X262804761Y-49804761D01*
X262709523Y-49709523D01*
X262661904Y-49614285D01*
X262614285Y-49423809D01*
X262614285Y-49280952D01*
X262661904Y-49090476D01*
X262709523Y-48995238D01*
X262804761Y-48900000D01*
X262947619Y-48852380D01*
X263042857Y-48852380D01*
X263185714Y-48900000D01*
X263233333Y-48947619D01*
X264090476Y-49185714D02*
X264090476Y-49852380D01*
X263852380Y-48804761D02*
X263614285Y-49519047D01*
X264233333Y-49519047D01*
%TO.C,U2*%
X251038095Y-41252380D02*
X251038095Y-42061904D01*
X251085714Y-42157142D01*
X251133333Y-42204761D01*
X251228571Y-42252380D01*
X251419047Y-42252380D01*
X251514285Y-42204761D01*
X251561904Y-42157142D01*
X251609523Y-42061904D01*
X251609523Y-41252380D01*
X252038095Y-41347619D02*
X252085714Y-41300000D01*
X252180952Y-41252380D01*
X252419047Y-41252380D01*
X252514285Y-41300000D01*
X252561904Y-41347619D01*
X252609523Y-41442857D01*
X252609523Y-41538095D01*
X252561904Y-41680952D01*
X251990476Y-42252380D01*
X252609523Y-42252380D01*
%TO.C,C3*%
X255833333Y-43757142D02*
X255785714Y-43804761D01*
X255642857Y-43852380D01*
X255547619Y-43852380D01*
X255404761Y-43804761D01*
X255309523Y-43709523D01*
X255261904Y-43614285D01*
X255214285Y-43423809D01*
X255214285Y-43280952D01*
X255261904Y-43090476D01*
X255309523Y-42995238D01*
X255404761Y-42900000D01*
X255547619Y-42852380D01*
X255642857Y-42852380D01*
X255785714Y-42900000D01*
X255833333Y-42947619D01*
X256166666Y-42852380D02*
X256785714Y-42852380D01*
X256452380Y-43233333D01*
X256595238Y-43233333D01*
X256690476Y-43280952D01*
X256738095Y-43328571D01*
X256785714Y-43423809D01*
X256785714Y-43661904D01*
X256738095Y-43757142D01*
X256690476Y-43804761D01*
X256595238Y-43852380D01*
X256309523Y-43852380D01*
X256214285Y-43804761D01*
X256166666Y-43757142D01*
%TO.C,C5*%
X263433333Y-52357142D02*
X263385714Y-52404761D01*
X263242857Y-52452380D01*
X263147619Y-52452380D01*
X263004761Y-52404761D01*
X262909523Y-52309523D01*
X262861904Y-52214285D01*
X262814285Y-52023809D01*
X262814285Y-51880952D01*
X262861904Y-51690476D01*
X262909523Y-51595238D01*
X263004761Y-51500000D01*
X263147619Y-51452380D01*
X263242857Y-51452380D01*
X263385714Y-51500000D01*
X263433333Y-51547619D01*
X264338095Y-51452380D02*
X263861904Y-51452380D01*
X263814285Y-51928571D01*
X263861904Y-51880952D01*
X263957142Y-51833333D01*
X264195238Y-51833333D01*
X264290476Y-51880952D01*
X264338095Y-51928571D01*
X264385714Y-52023809D01*
X264385714Y-52261904D01*
X264338095Y-52357142D01*
X264290476Y-52404761D01*
X264195238Y-52452380D01*
X263957142Y-52452380D01*
X263861904Y-52404761D01*
X263814285Y-52357142D01*
%TO.C,C1*%
X248033333Y-41957142D02*
X247985714Y-42004761D01*
X247842857Y-42052380D01*
X247747619Y-42052380D01*
X247604761Y-42004761D01*
X247509523Y-41909523D01*
X247461904Y-41814285D01*
X247414285Y-41623809D01*
X247414285Y-41480952D01*
X247461904Y-41290476D01*
X247509523Y-41195238D01*
X247604761Y-41100000D01*
X247747619Y-41052380D01*
X247842857Y-41052380D01*
X247985714Y-41100000D01*
X248033333Y-41147619D01*
X248985714Y-42052380D02*
X248414285Y-42052380D01*
X248700000Y-42052380D02*
X248700000Y-41052380D01*
X248604761Y-41195238D01*
X248509523Y-41290476D01*
X248414285Y-41338095D01*
%TO.C,J1*%
X266866666Y-41652380D02*
X266866666Y-42366666D01*
X266819047Y-42509523D01*
X266723809Y-42604761D01*
X266580952Y-42652380D01*
X266485714Y-42652380D01*
X267866666Y-42652380D02*
X267295238Y-42652380D01*
X267580952Y-42652380D02*
X267580952Y-41652380D01*
X267485714Y-41795238D01*
X267390476Y-41890476D01*
X267295238Y-41938095D01*
%TO.C,D1*%
X259211904Y-46252380D02*
X259211904Y-45252380D01*
X259450000Y-45252380D01*
X259592857Y-45300000D01*
X259688095Y-45395238D01*
X259735714Y-45490476D01*
X259783333Y-45680952D01*
X259783333Y-45823809D01*
X259735714Y-46014285D01*
X259688095Y-46109523D01*
X259592857Y-46204761D01*
X259450000Y-46252380D01*
X259211904Y-46252380D01*
X260735714Y-46252380D02*
X260164285Y-46252380D01*
X260450000Y-46252380D02*
X260450000Y-45252380D01*
X260354761Y-45395238D01*
X260259523Y-45490476D01*
X260164285Y-45538095D01*
%TO.C,U1*%
X250438095Y-50452380D02*
X250438095Y-51261904D01*
X250485714Y-51357142D01*
X250533333Y-51404761D01*
X250628571Y-51452380D01*
X250819047Y-51452380D01*
X250914285Y-51404761D01*
X250961904Y-51357142D01*
X251009523Y-51261904D01*
X251009523Y-50452380D01*
X252009523Y-51452380D02*
X251438095Y-51452380D01*
X251723809Y-51452380D02*
X251723809Y-50452380D01*
X251628571Y-50595238D01*
X251533333Y-50690476D01*
X251438095Y-50738095D01*
%TO.C,C2*%
X254633333Y-42357142D02*
X254585714Y-42404761D01*
X254442857Y-42452380D01*
X254347619Y-42452380D01*
X254204761Y-42404761D01*
X254109523Y-42309523D01*
X254061904Y-42214285D01*
X254014285Y-42023809D01*
X254014285Y-41880952D01*
X254061904Y-41690476D01*
X254109523Y-41595238D01*
X254204761Y-41500000D01*
X254347619Y-41452380D01*
X254442857Y-41452380D01*
X254585714Y-41500000D01*
X254633333Y-41547619D01*
X255014285Y-41547619D02*
X255061904Y-41500000D01*
X255157142Y-41452380D01*
X255395238Y-41452380D01*
X255490476Y-41500000D01*
X255538095Y-41547619D01*
X255585714Y-41642857D01*
X255585714Y-41738095D01*
X255538095Y-41880952D01*
X254966666Y-42452380D01*
X255585714Y-42452380D01*
%TO.C,U3*%
X253638095Y-46452380D02*
X253638095Y-47261904D01*
X253685714Y-47357142D01*
X253733333Y-47404761D01*
X253828571Y-47452380D01*
X254019047Y-47452380D01*
X254114285Y-47404761D01*
X254161904Y-47357142D01*
X254209523Y-47261904D01*
X254209523Y-46452380D01*
X254590476Y-46452380D02*
X255209523Y-46452380D01*
X254876190Y-46833333D01*
X255019047Y-46833333D01*
X255114285Y-46880952D01*
X255161904Y-46928571D01*
X255209523Y-47023809D01*
X255209523Y-47261904D01*
X255161904Y-47357142D01*
X255114285Y-47404761D01*
X255019047Y-47452380D01*
X254733333Y-47452380D01*
X254638095Y-47404761D01*
X254590476Y-47357142D01*
%TO.C,R2*%
X247833333Y-47452380D02*
X247500000Y-46976190D01*
X247261904Y-47452380D02*
X247261904Y-46452380D01*
X247642857Y-46452380D01*
X247738095Y-46500000D01*
X247785714Y-46547619D01*
X247833333Y-46642857D01*
X247833333Y-46785714D01*
X247785714Y-46880952D01*
X247738095Y-46928571D01*
X247642857Y-46976190D01*
X247261904Y-46976190D01*
X248214285Y-46547619D02*
X248261904Y-46500000D01*
X248357142Y-46452380D01*
X248595238Y-46452380D01*
X248690476Y-46500000D01*
X248738095Y-46547619D01*
X248785714Y-46642857D01*
X248785714Y-46738095D01*
X248738095Y-46880952D01*
X248166666Y-47452380D01*
X248785714Y-47452380D01*
D11*
%TO.C,C4*%
X261290000Y-49483767D02*
X261290000Y-49191233D01*
X262310000Y-49483767D02*
X262310000Y-49191233D01*
%TO.C,U2*%
X250500000Y-42680000D02*
X252500000Y-42680000D01*
X252500000Y-44920000D02*
X251500000Y-44920000D01*
%TO.C,C5*%
X262310000Y-52808767D02*
X262310000Y-52516233D01*
X261290000Y-52808767D02*
X261290000Y-52516233D01*
%TO.C,J1*%
X265745000Y-44130000D02*
X265745000Y-41470000D01*
X263145000Y-41470000D02*
X265745000Y-41470000D01*
X260545000Y-44130000D02*
X260545000Y-42800000D01*
X261875000Y-44130000D02*
X260545000Y-44130000D01*
X263145000Y-44130000D02*
X263145000Y-41470000D01*
X263145000Y-44130000D02*
X265745000Y-44130000D01*
%TO.C,D1*%
X260950000Y-47300000D02*
X262650000Y-47300000D01*
X262650000Y-47300000D02*
X262650000Y-44750000D01*
X260950000Y-47300000D02*
X260950000Y-44750000D01*
%TO.C,U1*%
X254640000Y-54610000D02*
X254640000Y-53350000D01*
X260650000Y-54610000D02*
X254640000Y-54610000D01*
X258400000Y-47790000D02*
X254640000Y-47790000D01*
X254640000Y-47790000D02*
X254640000Y-49050000D01*
%TO.C,U3*%
X251800000Y-48560000D02*
X252450000Y-48560000D01*
X251800000Y-45440000D02*
X250125000Y-45440000D01*
X251800000Y-45440000D02*
X252450000Y-45440000D01*
X251800000Y-48560000D02*
X251150000Y-48560000D01*
%TO.C,R2*%
X249780000Y-46832379D02*
X249780000Y-47167621D01*
X249020000Y-46832379D02*
X249020000Y-47167621D01*
%TD*%
M02*
