%TF.GenerationSoftware,KiCad,Pcbnew,(6.0.2)*%
%TF.CreationDate,2022-05-16T06:01:07+03:00*%
%TF.ProjectId,FLIM_detector,464c494d-5f64-4657-9465-63746f722e6b,rev?*%
%TF.SameCoordinates,Original*%
%TF.FileFunction,Copper,L1,Top*%
%TF.FilePolarity,Positive*%
%FSLAX46Y46*%
G04 Gerber Fmt 4.6, Leading zero omitted, Abs format (unit mm)*
G04 Created by KiCad (PCBNEW (6.0.2)) date 2022-05-16 06:01:07*
%MOMM*%
%LPD*%
G01*
G04 APERTURE LIST*
G04 Aperture macros list*
%AMRoundRect*
0 Rectangle with rounded corners*
0 $1 Rounding radius*
0 $2 $3 $4 $5 $6 $7 $8 $9 X,Y pos of 4 corners*
0 Add a 4 corners polygon primitive as box body*
4,1,4,$2,$3,$4,$5,$6,$7,$8,$9,$2,$3,0*
0 Add four circle primitives for the rounded corners*
1,1,$1+$1,$2,$3*
1,1,$1+$1,$4,$5*
1,1,$1+$1,$6,$7*
1,1,$1+$1,$8,$9*
0 Add four rect primitives between the rounded corners*
20,1,$1+$1,$2,$3,$4,$5,0*
20,1,$1+$1,$4,$5,$6,$7,0*
20,1,$1+$1,$6,$7,$8,$9,0*
20,1,$1+$1,$8,$9,$2,$3,0*%
G04 Aperture macros list end*
%TA.AperFunction,SMDPad,CuDef*%
%ADD10RoundRect,0.100000X-0.130000X-0.100000X0.130000X-0.100000X0.130000X0.100000X-0.130000X0.100000X0*%
%TD*%
%TA.AperFunction,SMDPad,CuDef*%
%ADD11RoundRect,0.237500X0.237500X-0.300000X0.237500X0.300000X-0.237500X0.300000X-0.237500X-0.300000X0*%
%TD*%
%TA.AperFunction,SMDPad,CuDef*%
%ADD12R,0.500000X0.250000*%
%TD*%
%TA.AperFunction,SMDPad,CuDef*%
%ADD13R,0.900000X1.600000*%
%TD*%
%TA.AperFunction,ComponentPad*%
%ADD14C,0.600000*%
%TD*%
%TA.AperFunction,SMDPad,CuDef*%
%ADD15RoundRect,0.100000X0.130000X0.100000X-0.130000X0.100000X-0.130000X-0.100000X0.130000X-0.100000X0*%
%TD*%
%TA.AperFunction,ComponentPad*%
%ADD16R,1.700000X1.700000*%
%TD*%
%TA.AperFunction,ComponentPad*%
%ADD17O,1.700000X1.700000*%
%TD*%
%TA.AperFunction,SMDPad,CuDef*%
%ADD18R,0.500000X0.500000*%
%TD*%
%TA.AperFunction,SMDPad,CuDef*%
%ADD19R,2.000000X1.500000*%
%TD*%
%TA.AperFunction,SMDPad,CuDef*%
%ADD20R,2.000000X3.800000*%
%TD*%
%TA.AperFunction,SMDPad,CuDef*%
%ADD21RoundRect,0.150000X-0.587500X-0.150000X0.587500X-0.150000X0.587500X0.150000X-0.587500X0.150000X0*%
%TD*%
%TA.AperFunction,SMDPad,CuDef*%
%ADD22RoundRect,0.160000X-0.160000X0.197500X-0.160000X-0.197500X0.160000X-0.197500X0.160000X0.197500X0*%
%TD*%
%TA.AperFunction,ComponentPad*%
%ADD23R,1.800000X1.800000*%
%TD*%
%TA.AperFunction,ComponentPad*%
%ADD24C,1.800000*%
%TD*%
%TA.AperFunction,ViaPad*%
%ADD25C,0.800000*%
%TD*%
%TA.AperFunction,Conductor*%
%ADD26C,0.250000*%
%TD*%
%TA.AperFunction,Conductor*%
%ADD27C,0.700000*%
%TD*%
%TA.AperFunction,Conductor*%
%ADD28C,0.600000*%
%TD*%
%TA.AperFunction,Conductor*%
%ADD29C,0.500000*%
%TD*%
%TA.AperFunction,Conductor*%
%ADD30C,1.000000*%
%TD*%
%TA.AperFunction,Conductor*%
%ADD31C,0.300000*%
%TD*%
%TA.AperFunction,Conductor*%
%ADD32C,0.400000*%
%TD*%
%TA.AperFunction,Conductor*%
%ADD33C,0.200000*%
%TD*%
G04 APERTURE END LIST*
D10*
%TO.P,R1,1*%
%TO.N,Net-(U2-Pad3)*%
X249480000Y-43400000D03*
%TO.P,R1,2*%
%TO.N,Net-(C1-Pad2)*%
X250120000Y-43400000D03*
%TD*%
D11*
%TO.P,C4,1*%
%TO.N,GND*%
X261800000Y-50200000D03*
%TO.P,C4,2*%
%TO.N,Net-(C4-Pad2)*%
X261800000Y-48475000D03*
%TD*%
D12*
%TO.P,U2,1,FB*%
%TO.N,Net-(C1-Pad2)*%
X251050000Y-43050000D03*
%TO.P,U2,2,NC*%
%TO.N,unconnected-(U2-Pad2)*%
X251050000Y-43550000D03*
%TO.P,U2,3,-*%
%TO.N,Net-(U2-Pad3)*%
X251050000Y-44050000D03*
%TO.P,U2,4,+*%
%TO.N,Net-(R2-Pad1)*%
X251050000Y-44550000D03*
%TO.P,U2,5,V-*%
%TO.N,GND*%
X252950000Y-44550000D03*
%TO.P,U2,6*%
%TO.N,Net-(J2-Pad1)*%
X252950000Y-44050000D03*
%TO.P,U2,7,V+*%
%TO.N,+5V*%
X252950000Y-43550000D03*
%TO.P,U2,8,~{PD}*%
X252950000Y-43050000D03*
D13*
%TO.P,U2,9,V-*%
%TO.N,GND*%
X252000000Y-43800000D03*
D14*
X252000000Y-44300000D03*
X252000000Y-43300000D03*
%TD*%
D15*
%TO.P,C3,1*%
%TO.N,GND*%
X254640000Y-43800000D03*
%TO.P,C3,2*%
%TO.N,+5V*%
X254000000Y-43800000D03*
%TD*%
D11*
%TO.P,C5,1*%
%TO.N,GND*%
X261800000Y-53525000D03*
%TO.P,C5,2*%
%TO.N,+5V*%
X261800000Y-51800000D03*
%TD*%
D10*
%TO.P,C1,1*%
%TO.N,Net-(U2-Pad3)*%
X249480000Y-42600000D03*
%TO.P,C1,2*%
%TO.N,Net-(C1-Pad2)*%
X250120000Y-42600000D03*
%TD*%
D16*
%TO.P,J1,1,Pin_1*%
%TO.N,Net-(D1-Pad2)*%
X261875000Y-42800000D03*
D17*
%TO.P,J1,2,Pin_2*%
%TO.N,GND*%
X264415000Y-42800000D03*
%TD*%
D18*
%TO.P,D1,1,K*%
%TO.N,Net-(C4-Pad2)*%
X261800000Y-46900000D03*
%TO.P,D1,2,A*%
%TO.N,Net-(D1-Pad2)*%
X261800000Y-44700000D03*
%TD*%
D19*
%TO.P,U1,1,GND*%
%TO.N,GND*%
X259700000Y-53500000D03*
D20*
%TO.P,U1,2,VO*%
%TO.N,+5V*%
X253400000Y-51200000D03*
D19*
X259700000Y-51200000D03*
%TO.P,U1,3,VI*%
%TO.N,Net-(C4-Pad2)*%
X259700000Y-48900000D03*
%TD*%
D15*
%TO.P,C2,1*%
%TO.N,GND*%
X254640000Y-43000000D03*
%TO.P,C2,2*%
%TO.N,+5V*%
X254000000Y-43000000D03*
%TD*%
D21*
%TO.P,U3,1,K*%
%TO.N,Net-(R2-Pad1)*%
X250862500Y-46050000D03*
%TO.P,U3,2,A*%
%TO.N,GND*%
X250862500Y-47950000D03*
%TO.P,U3,3*%
%TO.N,N/C*%
X252737500Y-47000000D03*
%TD*%
D22*
%TO.P,R2,1*%
%TO.N,Net-(R2-Pad1)*%
X249400000Y-46402500D03*
%TO.P,R2,2*%
%TO.N,+5V*%
X249400000Y-47597500D03*
%TD*%
D23*
%TO.P,D2,1,K*%
%TO.N,GND*%
X246725000Y-44800000D03*
D24*
%TO.P,D2,2,A*%
%TO.N,Net-(U2-Pad3)*%
X249265000Y-44800000D03*
%TD*%
D16*
%TO.P,J2,1,Pin_1*%
%TO.N,Net-(J2-Pad1)*%
X254400000Y-45200000D03*
D17*
%TO.P,J2,2,Pin_2*%
%TO.N,GND*%
X256940000Y-45200000D03*
%TD*%
D25*
%TO.N,GND*%
X252200000Y-40400000D03*
X260000000Y-46800000D03*
X253000000Y-48200000D03*
X248400000Y-49000000D03*
X246600000Y-48400000D03*
X263400000Y-39200000D03*
X266200000Y-45400000D03*
X264200000Y-46000000D03*
X265800000Y-47000000D03*
X257600000Y-49600000D03*
X254600000Y-38600000D03*
X256200000Y-47000000D03*
X261400000Y-39200000D03*
X247000000Y-42000000D03*
X256984812Y-39982490D03*
X258800000Y-38800000D03*
X252583886Y-45782894D03*
X257200000Y-43200000D03*
X256400000Y-53000000D03*
%TD*%
D26*
%TO.N,Net-(C1-Pad2)*%
X251050000Y-43050000D02*
X250170000Y-43050000D01*
X250170000Y-43050000D02*
X250120000Y-43000000D01*
X250120000Y-42920000D02*
X250120000Y-42600000D01*
X250120000Y-42920000D02*
X250120000Y-43400000D01*
D27*
%TO.N,GND*%
X261800000Y-53525000D02*
X259725000Y-53525000D01*
D26*
X259725000Y-53525000D02*
X259700000Y-53500000D01*
D28*
%TO.N,+5V*%
X253400000Y-50600000D02*
X255400000Y-48600000D01*
X257400000Y-41800000D02*
X254400000Y-41800000D01*
D26*
X252950000Y-43350000D02*
X253000000Y-43400000D01*
D28*
X259000000Y-46200000D02*
X259000000Y-44800000D01*
D29*
X253400000Y-51200000D02*
X254200000Y-50400000D01*
D26*
X254000000Y-43400000D02*
X254000000Y-43000000D01*
D28*
X256800000Y-48400000D02*
X259000000Y-46200000D01*
D29*
X252200000Y-49600000D02*
X253400000Y-50800000D01*
D28*
X255400000Y-48600000D02*
X255600000Y-48400000D01*
D30*
X259700000Y-51200000D02*
X253400000Y-51200000D01*
D28*
X261200000Y-51200000D02*
X259700000Y-51200000D01*
D26*
X252950000Y-43050000D02*
X252950000Y-43350000D01*
D31*
X254000000Y-42200000D02*
X254000000Y-43000000D01*
D28*
X253400000Y-51200000D02*
X253400000Y-50600000D01*
D26*
X253000000Y-43400000D02*
X254000000Y-43400000D01*
D29*
X250600000Y-49600000D02*
X252200000Y-49600000D01*
D28*
X261800000Y-51800000D02*
X261200000Y-51200000D01*
D29*
X249400000Y-48400000D02*
X250600000Y-49600000D01*
X253400000Y-50800000D02*
X253400000Y-51200000D01*
D28*
X259000000Y-44800000D02*
X259000000Y-43400000D01*
D31*
X254400000Y-41800000D02*
X254000000Y-42200000D01*
D28*
X255600000Y-48400000D02*
X256800000Y-48400000D01*
D26*
X254000000Y-43400000D02*
X254000000Y-43800000D01*
X252950000Y-43350000D02*
X252950000Y-43550000D01*
D28*
X259000000Y-43400000D02*
X257400000Y-41800000D01*
D29*
X249400000Y-47597500D02*
X249400000Y-48400000D01*
D26*
%TO.N,Net-(J2-Pad1)*%
X254400000Y-45039022D02*
X254400000Y-45200000D01*
X252950000Y-44050000D02*
X253419639Y-44050000D01*
X253419639Y-44058661D02*
X254400000Y-45039022D01*
X253419639Y-44050000D02*
X253419639Y-44058661D01*
X254569639Y-45200000D02*
X254725000Y-45200000D01*
D27*
%TO.N,Net-(C4-Pad2)*%
X261800000Y-48475000D02*
X260125000Y-48475000D01*
D26*
X260125000Y-48475000D02*
X259700000Y-48900000D01*
D32*
X261800000Y-46900000D02*
X261800000Y-48475000D01*
%TO.N,Net-(D1-Pad2)*%
X261800000Y-44700000D02*
X261800000Y-42875000D01*
D26*
X261800000Y-42875000D02*
X261875000Y-42800000D01*
%TO.N,Net-(U2-Pad3)*%
X249480000Y-42600000D02*
X249480000Y-43400000D01*
D33*
X250015000Y-44050000D02*
X249265000Y-44800000D01*
D26*
X249480000Y-43400000D02*
X249480000Y-44585000D01*
D33*
X251050000Y-44050000D02*
X250015000Y-44050000D01*
D26*
X249480000Y-44585000D02*
X249265000Y-44800000D01*
%TO.N,Net-(R2-Pad1)*%
X251050000Y-45862500D02*
X250862500Y-46050000D01*
X251050000Y-44550000D02*
X251050000Y-45862500D01*
X249752500Y-46050000D02*
X249400000Y-46402500D01*
X250862500Y-46050000D02*
X249752500Y-46050000D01*
%TD*%
%TA.AperFunction,Conductor*%
%TO.N,GND*%
G36*
X268559191Y-35418907D02*
G01*
X268595155Y-35468407D01*
X268600000Y-35499000D01*
X268600000Y-55901000D01*
X268581093Y-55959191D01*
X268531593Y-55995155D01*
X268501000Y-56000000D01*
X245899000Y-56000000D01*
X245840809Y-55981093D01*
X245804845Y-55931593D01*
X245800000Y-55901000D01*
X245800000Y-53639438D01*
X246945066Y-53639438D01*
X246971883Y-53861044D01*
X246973176Y-53865249D01*
X246973177Y-53865251D01*
X247014776Y-54000471D01*
X247037519Y-54074400D01*
X247039541Y-54078317D01*
X247039542Y-54078320D01*
X247094913Y-54185598D01*
X247139901Y-54272759D01*
X247275790Y-54449854D01*
X247279046Y-54452817D01*
X247279049Y-54452820D01*
X247386341Y-54550448D01*
X247440893Y-54600086D01*
X247629990Y-54718707D01*
X247634072Y-54720348D01*
X247634076Y-54720350D01*
X247762877Y-54772127D01*
X247837105Y-54801966D01*
X248055690Y-54847233D01*
X248112349Y-54850500D01*
X248256630Y-54850500D01*
X248258824Y-54850304D01*
X248258828Y-54850304D01*
X248417951Y-54836103D01*
X248417955Y-54836102D01*
X248422339Y-54835711D01*
X248426584Y-54834550D01*
X248426588Y-54834549D01*
X248633400Y-54777971D01*
X248633401Y-54777971D01*
X248637651Y-54776808D01*
X248756018Y-54720350D01*
X248835151Y-54682606D01*
X248835156Y-54682603D01*
X248839129Y-54680708D01*
X249020405Y-54550448D01*
X249115014Y-54452820D01*
X249172681Y-54393312D01*
X249175749Y-54390146D01*
X249259951Y-54264840D01*
X258500000Y-54264840D01*
X258500948Y-54274462D01*
X258509702Y-54318474D01*
X258517021Y-54336142D01*
X258550389Y-54386082D01*
X258563918Y-54399611D01*
X258613858Y-54432979D01*
X258631526Y-54440298D01*
X258675538Y-54449052D01*
X258685160Y-54450000D01*
X259584320Y-54450000D01*
X259597005Y-54445878D01*
X259600000Y-54441757D01*
X259600000Y-54434320D01*
X259800000Y-54434320D01*
X259804122Y-54447005D01*
X259808243Y-54450000D01*
X260714840Y-54450000D01*
X260724462Y-54449052D01*
X260768474Y-54440298D01*
X260786142Y-54432979D01*
X260836082Y-54399611D01*
X260849611Y-54386082D01*
X260882979Y-54336142D01*
X260890298Y-54318474D01*
X260899052Y-54274462D01*
X260900000Y-54264840D01*
X260900000Y-53874955D01*
X261125000Y-53874955D01*
X261125218Y-53879591D01*
X261127327Y-53901897D01*
X261129895Y-53913599D01*
X261169034Y-54025051D01*
X261175881Y-54037984D01*
X261245246Y-54131897D01*
X261255603Y-54142254D01*
X261349516Y-54211619D01*
X261362449Y-54218466D01*
X261473901Y-54257605D01*
X261485603Y-54260173D01*
X261507909Y-54262282D01*
X261512545Y-54262500D01*
X261684320Y-54262500D01*
X261697005Y-54258378D01*
X261700000Y-54254257D01*
X261700000Y-54246820D01*
X261900000Y-54246820D01*
X261904122Y-54259505D01*
X261908243Y-54262500D01*
X262087455Y-54262500D01*
X262092091Y-54262282D01*
X262114397Y-54260173D01*
X262126099Y-54257605D01*
X262237551Y-54218466D01*
X262250484Y-54211619D01*
X262344397Y-54142254D01*
X262354754Y-54131897D01*
X262424119Y-54037984D01*
X262430966Y-54025051D01*
X262470105Y-53913599D01*
X262472673Y-53901897D01*
X262474782Y-53879591D01*
X262475000Y-53874955D01*
X262475000Y-53640680D01*
X262474596Y-53639438D01*
X264945066Y-53639438D01*
X264971883Y-53861044D01*
X264973176Y-53865249D01*
X264973177Y-53865251D01*
X265014776Y-54000471D01*
X265037519Y-54074400D01*
X265039541Y-54078317D01*
X265039542Y-54078320D01*
X265094913Y-54185598D01*
X265139901Y-54272759D01*
X265275790Y-54449854D01*
X265279046Y-54452817D01*
X265279049Y-54452820D01*
X265386341Y-54550448D01*
X265440893Y-54600086D01*
X265629990Y-54718707D01*
X265634072Y-54720348D01*
X265634076Y-54720350D01*
X265762877Y-54772127D01*
X265837105Y-54801966D01*
X266055690Y-54847233D01*
X266112349Y-54850500D01*
X266256630Y-54850500D01*
X266258824Y-54850304D01*
X266258828Y-54850304D01*
X266417951Y-54836103D01*
X266417955Y-54836102D01*
X266422339Y-54835711D01*
X266426584Y-54834550D01*
X266426588Y-54834549D01*
X266633400Y-54777971D01*
X266633401Y-54777971D01*
X266637651Y-54776808D01*
X266756018Y-54720350D01*
X266835151Y-54682606D01*
X266835156Y-54682603D01*
X266839129Y-54680708D01*
X267020405Y-54550448D01*
X267115014Y-54452820D01*
X267172681Y-54393312D01*
X267175749Y-54390146D01*
X267300250Y-54204868D01*
X267389974Y-54000471D01*
X267442085Y-53783415D01*
X267454934Y-53560562D01*
X267428117Y-53338956D01*
X267386541Y-53203808D01*
X267363778Y-53129815D01*
X267363777Y-53129812D01*
X267362481Y-53125600D01*
X267310531Y-53024949D01*
X267262120Y-52931157D01*
X267260099Y-52927241D01*
X267124210Y-52750146D01*
X267120954Y-52747183D01*
X267120951Y-52747180D01*
X266962361Y-52602875D01*
X266962362Y-52602875D01*
X266959107Y-52599914D01*
X266770010Y-52481293D01*
X266765928Y-52479652D01*
X266765924Y-52479650D01*
X266585833Y-52407255D01*
X266562895Y-52398034D01*
X266344310Y-52352767D01*
X266287651Y-52349500D01*
X266143370Y-52349500D01*
X266141176Y-52349696D01*
X266141172Y-52349696D01*
X265982049Y-52363897D01*
X265982045Y-52363898D01*
X265977661Y-52364289D01*
X265973416Y-52365450D01*
X265973412Y-52365451D01*
X265798833Y-52413211D01*
X265762349Y-52423192D01*
X265758371Y-52425089D01*
X265758372Y-52425089D01*
X265564849Y-52517394D01*
X265564844Y-52517397D01*
X265560871Y-52519292D01*
X265557292Y-52521864D01*
X265557290Y-52521865D01*
X265496315Y-52565680D01*
X265379595Y-52649552D01*
X265376522Y-52652723D01*
X265376521Y-52652724D01*
X265227319Y-52806688D01*
X265224251Y-52809854D01*
X265099750Y-52995132D01*
X265010026Y-53199529D01*
X264957915Y-53416585D01*
X264957662Y-53420977D01*
X264957661Y-53420982D01*
X264950654Y-53542523D01*
X264945066Y-53639438D01*
X262474596Y-53639438D01*
X262470878Y-53627995D01*
X262466757Y-53625000D01*
X261915680Y-53625000D01*
X261902995Y-53629122D01*
X261900000Y-53633243D01*
X261900000Y-54246820D01*
X261700000Y-54246820D01*
X261700000Y-53640680D01*
X261695878Y-53627995D01*
X261691757Y-53625000D01*
X261140680Y-53625000D01*
X261127995Y-53629122D01*
X261125000Y-53633243D01*
X261125000Y-53874955D01*
X260900000Y-53874955D01*
X260900000Y-53615680D01*
X260895878Y-53602995D01*
X260891757Y-53600000D01*
X259815680Y-53600000D01*
X259802995Y-53604122D01*
X259800000Y-53608243D01*
X259800000Y-54434320D01*
X259600000Y-54434320D01*
X259600000Y-53615680D01*
X259595878Y-53602995D01*
X259591757Y-53600000D01*
X258515680Y-53600000D01*
X258502995Y-53604122D01*
X258500000Y-53608243D01*
X258500000Y-54264840D01*
X249259951Y-54264840D01*
X249300250Y-54204868D01*
X249389974Y-54000471D01*
X249442085Y-53783415D01*
X249454934Y-53560562D01*
X249436632Y-53409320D01*
X261125000Y-53409320D01*
X261129122Y-53422005D01*
X261133243Y-53425000D01*
X261684320Y-53425000D01*
X261697005Y-53420878D01*
X261700000Y-53416757D01*
X261700000Y-53409320D01*
X261900000Y-53409320D01*
X261904122Y-53422005D01*
X261908243Y-53425000D01*
X262459320Y-53425000D01*
X262472005Y-53420878D01*
X262475000Y-53416757D01*
X262475000Y-53175045D01*
X262474782Y-53170409D01*
X262472673Y-53148103D01*
X262470105Y-53136401D01*
X262430966Y-53024949D01*
X262424119Y-53012016D01*
X262354754Y-52918103D01*
X262344397Y-52907746D01*
X262250484Y-52838381D01*
X262237551Y-52831534D01*
X262126099Y-52792395D01*
X262114397Y-52789827D01*
X262092091Y-52787718D01*
X262087455Y-52787500D01*
X261915680Y-52787500D01*
X261902995Y-52791622D01*
X261900000Y-52795743D01*
X261900000Y-53409320D01*
X261700000Y-53409320D01*
X261700000Y-52803180D01*
X261695878Y-52790495D01*
X261691757Y-52787500D01*
X261512545Y-52787500D01*
X261507909Y-52787718D01*
X261485603Y-52789827D01*
X261473901Y-52792395D01*
X261362449Y-52831534D01*
X261349516Y-52838381D01*
X261255603Y-52907746D01*
X261245246Y-52918103D01*
X261175881Y-53012016D01*
X261169034Y-53024949D01*
X261129895Y-53136401D01*
X261127327Y-53148103D01*
X261125218Y-53170409D01*
X261125000Y-53175045D01*
X261125000Y-53409320D01*
X249436632Y-53409320D01*
X249433607Y-53384320D01*
X258500000Y-53384320D01*
X258504122Y-53397005D01*
X258508243Y-53400000D01*
X259584320Y-53400000D01*
X259597005Y-53395878D01*
X259600000Y-53391757D01*
X259600000Y-53384320D01*
X259800000Y-53384320D01*
X259804122Y-53397005D01*
X259808243Y-53400000D01*
X260884320Y-53400000D01*
X260897005Y-53395878D01*
X260900000Y-53391757D01*
X260900000Y-52735160D01*
X260899052Y-52725538D01*
X260890298Y-52681526D01*
X260882979Y-52663858D01*
X260849611Y-52613918D01*
X260836082Y-52600389D01*
X260786142Y-52567021D01*
X260768474Y-52559702D01*
X260724462Y-52550948D01*
X260714840Y-52550000D01*
X259815680Y-52550000D01*
X259802995Y-52554122D01*
X259800000Y-52558243D01*
X259800000Y-53384320D01*
X259600000Y-53384320D01*
X259600000Y-52565680D01*
X259595878Y-52552995D01*
X259591757Y-52550000D01*
X258685160Y-52550000D01*
X258675538Y-52550948D01*
X258631526Y-52559702D01*
X258613858Y-52567021D01*
X258563918Y-52600389D01*
X258550389Y-52613918D01*
X258517021Y-52663858D01*
X258509702Y-52681526D01*
X258500948Y-52725538D01*
X258500000Y-52735160D01*
X258500000Y-53384320D01*
X249433607Y-53384320D01*
X249428117Y-53338956D01*
X249386541Y-53203808D01*
X249363778Y-53129815D01*
X249363777Y-53129812D01*
X249362481Y-53125600D01*
X249310531Y-53024949D01*
X249262120Y-52931157D01*
X249260099Y-52927241D01*
X249124210Y-52750146D01*
X249120954Y-52747183D01*
X249120951Y-52747180D01*
X248962361Y-52602875D01*
X248962362Y-52602875D01*
X248959107Y-52599914D01*
X248770010Y-52481293D01*
X248765928Y-52479652D01*
X248765924Y-52479650D01*
X248585833Y-52407255D01*
X248562895Y-52398034D01*
X248344310Y-52352767D01*
X248287651Y-52349500D01*
X248143370Y-52349500D01*
X248141176Y-52349696D01*
X248141172Y-52349696D01*
X247982049Y-52363897D01*
X247982045Y-52363898D01*
X247977661Y-52364289D01*
X247973416Y-52365450D01*
X247973412Y-52365451D01*
X247798833Y-52413211D01*
X247762349Y-52423192D01*
X247758371Y-52425089D01*
X247758372Y-52425089D01*
X247564849Y-52517394D01*
X247564844Y-52517397D01*
X247560871Y-52519292D01*
X247557292Y-52521864D01*
X247557290Y-52521865D01*
X247496315Y-52565680D01*
X247379595Y-52649552D01*
X247376522Y-52652723D01*
X247376521Y-52652724D01*
X247227319Y-52806688D01*
X247224251Y-52809854D01*
X247099750Y-52995132D01*
X247010026Y-53199529D01*
X246957915Y-53416585D01*
X246957662Y-53420977D01*
X246957661Y-53420982D01*
X246950654Y-53542523D01*
X246945066Y-53639438D01*
X245800000Y-53639438D01*
X245800000Y-45999000D01*
X245818907Y-45940809D01*
X245868407Y-45904845D01*
X245899000Y-45900000D01*
X246609320Y-45900000D01*
X246622005Y-45895878D01*
X246625000Y-45891757D01*
X246625000Y-45884320D01*
X246825000Y-45884320D01*
X246829122Y-45897005D01*
X246833243Y-45900000D01*
X247639840Y-45900000D01*
X247649462Y-45899052D01*
X247693474Y-45890298D01*
X247711142Y-45882979D01*
X247761082Y-45849611D01*
X247774611Y-45836082D01*
X247807979Y-45786142D01*
X247815298Y-45768474D01*
X247824052Y-45724462D01*
X247825000Y-45714840D01*
X247825000Y-44915680D01*
X247820878Y-44902995D01*
X247816757Y-44900000D01*
X246840680Y-44900000D01*
X246827995Y-44904122D01*
X246825000Y-44908243D01*
X246825000Y-45884320D01*
X246625000Y-45884320D01*
X246625000Y-44771069D01*
X248160164Y-44771069D01*
X248162810Y-44811442D01*
X248170020Y-44921440D01*
X248173392Y-44972894D01*
X248174508Y-44977287D01*
X248174508Y-44977289D01*
X248216027Y-45140770D01*
X248223178Y-45168928D01*
X248307856Y-45352607D01*
X248424588Y-45517780D01*
X248569466Y-45658913D01*
X248737637Y-45771282D01*
X248747085Y-45775341D01*
X248903766Y-45842657D01*
X248949767Y-45882999D01*
X248963271Y-45942676D01*
X248945984Y-45989225D01*
X248942453Y-45992762D01*
X248938859Y-46000115D01*
X248938858Y-46000116D01*
X248904821Y-46069748D01*
X248889747Y-46100585D01*
X248879500Y-46170828D01*
X248879500Y-46634172D01*
X248889930Y-46705026D01*
X248942824Y-46812757D01*
X249027762Y-46897547D01*
X249055461Y-46911087D01*
X249099434Y-46953629D01*
X249110005Y-47013894D01*
X249083134Y-47068863D01*
X249055612Y-47088895D01*
X249034587Y-47099218D01*
X249027243Y-47102824D01*
X248942453Y-47187762D01*
X248938859Y-47195115D01*
X248938858Y-47195116D01*
X248927347Y-47218666D01*
X248889747Y-47295585D01*
X248888638Y-47303189D01*
X248880022Y-47362253D01*
X248879500Y-47365828D01*
X248879500Y-47829172D01*
X248880026Y-47832744D01*
X248880026Y-47832747D01*
X248881959Y-47845878D01*
X248889930Y-47900026D01*
X248928517Y-47978618D01*
X248939367Y-48000716D01*
X248949500Y-48044348D01*
X248949500Y-48367373D01*
X248948814Y-48379009D01*
X248944636Y-48414310D01*
X248945965Y-48421586D01*
X248945965Y-48421589D01*
X248955248Y-48472414D01*
X248955758Y-48475476D01*
X248964551Y-48533962D01*
X248967679Y-48540475D01*
X248968975Y-48547573D01*
X248972386Y-48554139D01*
X248996198Y-48599980D01*
X248997588Y-48602762D01*
X249019987Y-48649408D01*
X249019989Y-48649411D01*
X249023191Y-48656079D01*
X249027297Y-48660521D01*
X249028820Y-48662781D01*
X249031421Y-48667788D01*
X249035725Y-48672828D01*
X249073357Y-48710460D01*
X249076051Y-48713263D01*
X249110124Y-48750124D01*
X249110127Y-48750126D01*
X249115146Y-48755556D01*
X249121210Y-48759078D01*
X249128535Y-48765638D01*
X250258381Y-49895484D01*
X250266122Y-49904196D01*
X250288128Y-49932110D01*
X250294215Y-49936317D01*
X250336741Y-49965708D01*
X250339272Y-49967517D01*
X250380861Y-49998236D01*
X250380863Y-49998237D01*
X250386816Y-50002634D01*
X250393632Y-50005027D01*
X250399569Y-50009131D01*
X250406628Y-50011364D01*
X250406629Y-50011364D01*
X250426973Y-50017798D01*
X250455929Y-50026956D01*
X250458814Y-50027918D01*
X250514631Y-50047519D01*
X250520673Y-50047756D01*
X250523347Y-50048277D01*
X250528730Y-50049980D01*
X250535337Y-50050500D01*
X250588541Y-50050500D01*
X250592428Y-50050576D01*
X250649994Y-50052838D01*
X250656773Y-50051041D01*
X250666593Y-50050500D01*
X251972389Y-50050500D01*
X252030580Y-50069407D01*
X252042393Y-50079496D01*
X252170504Y-50207607D01*
X252198281Y-50262124D01*
X252199500Y-50277611D01*
X252199500Y-53119748D01*
X252211133Y-53178231D01*
X252255448Y-53244552D01*
X252321769Y-53288867D01*
X252331332Y-53290769D01*
X252331334Y-53290770D01*
X252354005Y-53295279D01*
X252380252Y-53300500D01*
X254419748Y-53300500D01*
X254445995Y-53295279D01*
X254468666Y-53290770D01*
X254468668Y-53290769D01*
X254478231Y-53288867D01*
X254544552Y-53244552D01*
X254588867Y-53178231D01*
X254600500Y-53119748D01*
X254600500Y-51999500D01*
X254619407Y-51941309D01*
X254668907Y-51905345D01*
X254699500Y-51900500D01*
X258404478Y-51900500D01*
X258462669Y-51919407D01*
X258498633Y-51968907D01*
X258501576Y-51980186D01*
X258511133Y-52028231D01*
X258555448Y-52094552D01*
X258621769Y-52138867D01*
X258631332Y-52140769D01*
X258631334Y-52140770D01*
X258654005Y-52145279D01*
X258680252Y-52150500D01*
X260719748Y-52150500D01*
X260745995Y-52145279D01*
X260768666Y-52140770D01*
X260768668Y-52140769D01*
X260778231Y-52138867D01*
X260844552Y-52094552D01*
X260888867Y-52028231D01*
X260900500Y-51969748D01*
X260900500Y-51847322D01*
X260919407Y-51789131D01*
X260968907Y-51753167D01*
X261030093Y-51753167D01*
X261069504Y-51777318D01*
X261095505Y-51803319D01*
X261123282Y-51857836D01*
X261124501Y-51873323D01*
X261124501Y-52152332D01*
X261127399Y-52183000D01*
X261129395Y-52188684D01*
X261129396Y-52188688D01*
X261168587Y-52300286D01*
X261171039Y-52307268D01*
X261249289Y-52413211D01*
X261355232Y-52491461D01*
X261479500Y-52535101D01*
X261485504Y-52535669D01*
X261485506Y-52535669D01*
X261507856Y-52537782D01*
X261507866Y-52537782D01*
X261510167Y-52538000D01*
X261799875Y-52538000D01*
X262089832Y-52537999D01*
X262120500Y-52535101D01*
X262126184Y-52533105D01*
X262126188Y-52533104D01*
X262237786Y-52493913D01*
X262244768Y-52491461D01*
X262350711Y-52413211D01*
X262428961Y-52307268D01*
X262472601Y-52183000D01*
X262473169Y-52176994D01*
X262475282Y-52154644D01*
X262475282Y-52154634D01*
X262475500Y-52152333D01*
X262475499Y-51447668D01*
X262472601Y-51417000D01*
X262428961Y-51292732D01*
X262350711Y-51186789D01*
X262244768Y-51108539D01*
X262237785Y-51106087D01*
X262237780Y-51106084D01*
X262200928Y-51093142D01*
X262152289Y-51056022D01*
X262134759Y-50997402D01*
X262155032Y-50939673D01*
X262200929Y-50906327D01*
X262237552Y-50893466D01*
X262250484Y-50886619D01*
X262344397Y-50817254D01*
X262354754Y-50806897D01*
X262424119Y-50712984D01*
X262430966Y-50700051D01*
X262470105Y-50588599D01*
X262472673Y-50576897D01*
X262474782Y-50554591D01*
X262475000Y-50549955D01*
X262475000Y-50315680D01*
X262470878Y-50302995D01*
X262466757Y-50300000D01*
X261140680Y-50300000D01*
X261127995Y-50304122D01*
X261125000Y-50308243D01*
X261125000Y-50549955D01*
X261125218Y-50554591D01*
X261127328Y-50576906D01*
X261127850Y-50579286D01*
X261127698Y-50580825D01*
X261127895Y-50582905D01*
X261127490Y-50582943D01*
X261121851Y-50640177D01*
X261081208Y-50685912D01*
X261031150Y-50699500D01*
X260999500Y-50699500D01*
X260941309Y-50680593D01*
X260905345Y-50631093D01*
X260900500Y-50600500D01*
X260900500Y-50430252D01*
X260888867Y-50371769D01*
X260844552Y-50305448D01*
X260778231Y-50261133D01*
X260768668Y-50259231D01*
X260768666Y-50259230D01*
X260745995Y-50254721D01*
X260719748Y-50249500D01*
X258680252Y-50249500D01*
X258654005Y-50254721D01*
X258631334Y-50259230D01*
X258631332Y-50259231D01*
X258621769Y-50261133D01*
X258555448Y-50305448D01*
X258511133Y-50371769D01*
X258509231Y-50381332D01*
X258509230Y-50381334D01*
X258501576Y-50419814D01*
X258471679Y-50473198D01*
X258416114Y-50498814D01*
X258404478Y-50499500D01*
X254749931Y-50499500D01*
X254691740Y-50480593D01*
X254655776Y-50431093D01*
X254651007Y-50396614D01*
X254652548Y-50357400D01*
X254652548Y-50357397D01*
X254652838Y-50350006D01*
X254629537Y-50262124D01*
X254620017Y-50226221D01*
X254620017Y-50226220D01*
X254618119Y-50219063D01*
X254614200Y-50212780D01*
X254611263Y-50205992D01*
X254612771Y-50205339D01*
X254600500Y-50162471D01*
X254600500Y-50148322D01*
X254619407Y-50090131D01*
X254624370Y-50084320D01*
X261125000Y-50084320D01*
X261129122Y-50097005D01*
X261133243Y-50100000D01*
X261684320Y-50100000D01*
X261697005Y-50095878D01*
X261700000Y-50091757D01*
X261700000Y-50084320D01*
X261900000Y-50084320D01*
X261904122Y-50097005D01*
X261908243Y-50100000D01*
X262459320Y-50100000D01*
X262472005Y-50095878D01*
X262475000Y-50091757D01*
X262475000Y-49850045D01*
X262474782Y-49845409D01*
X262472673Y-49823103D01*
X262470105Y-49811401D01*
X262430966Y-49699949D01*
X262424119Y-49687016D01*
X262354754Y-49593103D01*
X262344397Y-49582746D01*
X262250484Y-49513381D01*
X262237551Y-49506534D01*
X262126099Y-49467395D01*
X262114397Y-49464827D01*
X262092091Y-49462718D01*
X262087455Y-49462500D01*
X261915680Y-49462500D01*
X261902995Y-49466622D01*
X261900000Y-49470743D01*
X261900000Y-50084320D01*
X261700000Y-50084320D01*
X261700000Y-49478180D01*
X261695878Y-49465495D01*
X261691757Y-49462500D01*
X261512545Y-49462500D01*
X261507909Y-49462718D01*
X261485603Y-49464827D01*
X261473901Y-49467395D01*
X261362449Y-49506534D01*
X261349516Y-49513381D01*
X261255603Y-49582746D01*
X261245246Y-49593103D01*
X261175881Y-49687016D01*
X261169034Y-49699949D01*
X261129895Y-49811401D01*
X261127327Y-49823103D01*
X261125218Y-49845409D01*
X261125000Y-49850045D01*
X261125000Y-50084320D01*
X254624370Y-50084320D01*
X254629496Y-50078318D01*
X255038066Y-49669748D01*
X258499500Y-49669748D01*
X258511133Y-49728231D01*
X258555448Y-49794552D01*
X258621769Y-49838867D01*
X258631332Y-49840769D01*
X258631334Y-49840770D01*
X258654005Y-49845279D01*
X258680252Y-49850500D01*
X260719748Y-49850500D01*
X260745995Y-49845279D01*
X260768666Y-49840770D01*
X260768668Y-49840769D01*
X260778231Y-49838867D01*
X260844552Y-49794552D01*
X260888867Y-49728231D01*
X260900500Y-49669748D01*
X260900500Y-49124500D01*
X260919407Y-49066309D01*
X260968907Y-49030345D01*
X260999500Y-49025500D01*
X261153016Y-49025500D01*
X261211207Y-49044407D01*
X261232648Y-49065681D01*
X261249289Y-49088211D01*
X261355232Y-49166461D01*
X261479500Y-49210101D01*
X261485504Y-49210669D01*
X261485506Y-49210669D01*
X261507856Y-49212782D01*
X261507866Y-49212782D01*
X261510167Y-49213000D01*
X261799875Y-49213000D01*
X262089832Y-49212999D01*
X262120500Y-49210101D01*
X262126184Y-49208105D01*
X262126188Y-49208104D01*
X262237786Y-49168913D01*
X262244768Y-49166461D01*
X262350711Y-49088211D01*
X262428961Y-48982268D01*
X262472601Y-48858000D01*
X262473169Y-48851994D01*
X262475282Y-48829644D01*
X262475282Y-48829634D01*
X262475500Y-48827333D01*
X262475499Y-48122668D01*
X262472601Y-48092000D01*
X262468856Y-48081334D01*
X262431413Y-47974714D01*
X262428961Y-47967732D01*
X262350711Y-47861789D01*
X262244768Y-47783539D01*
X262246015Y-47781850D01*
X262210590Y-47745286D01*
X262200500Y-47701742D01*
X262200500Y-47315682D01*
X262217185Y-47260680D01*
X262223307Y-47251518D01*
X262238867Y-47228231D01*
X262250500Y-47169748D01*
X262250500Y-46630252D01*
X262238867Y-46571769D01*
X262194552Y-46505448D01*
X262128231Y-46461133D01*
X262118668Y-46459231D01*
X262118666Y-46459230D01*
X262095995Y-46454721D01*
X262069748Y-46449500D01*
X261530252Y-46449500D01*
X261504005Y-46454721D01*
X261481334Y-46459230D01*
X261481332Y-46459231D01*
X261471769Y-46461133D01*
X261405448Y-46505448D01*
X261361133Y-46571769D01*
X261349500Y-46630252D01*
X261349500Y-47169748D01*
X261361133Y-47228231D01*
X261376693Y-47251518D01*
X261382815Y-47260680D01*
X261399500Y-47315682D01*
X261399500Y-47701742D01*
X261380593Y-47759933D01*
X261354513Y-47782566D01*
X261355232Y-47783539D01*
X261249289Y-47861789D01*
X261244890Y-47867745D01*
X261232649Y-47884318D01*
X261182869Y-47919892D01*
X261153016Y-47924500D01*
X260087215Y-47924500D01*
X260083872Y-47924958D01*
X260083871Y-47924958D01*
X259982251Y-47938878D01*
X259982247Y-47938879D01*
X259975568Y-47939794D01*
X259969380Y-47942472D01*
X259962872Y-47944289D01*
X259962595Y-47943296D01*
X259932636Y-47949500D01*
X258680252Y-47949500D01*
X258659942Y-47953540D01*
X258631334Y-47959230D01*
X258631332Y-47959231D01*
X258621769Y-47961133D01*
X258555448Y-48005448D01*
X258511133Y-48071769D01*
X258499500Y-48130252D01*
X258499500Y-49669748D01*
X255038066Y-49669748D01*
X255778318Y-48929496D01*
X255832835Y-48901719D01*
X255848322Y-48900500D01*
X256732834Y-48900500D01*
X256745535Y-48901919D01*
X256745537Y-48901897D01*
X256752569Y-48902463D01*
X256759447Y-48904019D01*
X256813101Y-48900690D01*
X256819233Y-48900500D01*
X256835940Y-48900500D01*
X256839427Y-48900001D01*
X256839435Y-48900000D01*
X256847121Y-48898899D01*
X256855024Y-48898089D01*
X256895501Y-48895578D01*
X256895504Y-48895577D01*
X256902538Y-48895141D01*
X256909167Y-48892748D01*
X256909171Y-48892747D01*
X256912187Y-48891658D01*
X256931763Y-48886777D01*
X256932955Y-48886606D01*
X256934936Y-48886323D01*
X256934937Y-48886323D01*
X256941918Y-48885323D01*
X256948337Y-48882404D01*
X256948342Y-48882403D01*
X256985257Y-48865619D01*
X256992615Y-48862623D01*
X257006810Y-48857498D01*
X257037387Y-48846460D01*
X257045672Y-48840408D01*
X257063086Y-48830232D01*
X257072428Y-48825984D01*
X257088341Y-48812272D01*
X257108495Y-48794907D01*
X257114716Y-48789967D01*
X257115146Y-48789653D01*
X257126336Y-48781478D01*
X257137800Y-48770014D01*
X257143181Y-48765019D01*
X257175693Y-48737005D01*
X257175694Y-48737004D01*
X257181037Y-48732400D01*
X257185711Y-48725189D01*
X257198782Y-48709032D01*
X259306414Y-46601399D01*
X259316397Y-46593423D01*
X259316383Y-46593406D01*
X259321757Y-46588832D01*
X259327720Y-46585070D01*
X259332387Y-46579786D01*
X259332389Y-46579784D01*
X259363300Y-46544783D01*
X259367500Y-46540313D01*
X259379320Y-46528493D01*
X259381429Y-46525678D01*
X259381434Y-46525673D01*
X259386090Y-46519460D01*
X259391107Y-46513297D01*
X259403292Y-46499500D01*
X259422623Y-46477612D01*
X259426981Y-46468329D01*
X259437373Y-46451033D01*
X259443526Y-46442824D01*
X259457200Y-46406350D01*
X259460235Y-46398254D01*
X259463320Y-46390934D01*
X259480554Y-46354226D01*
X259480555Y-46354222D01*
X259483553Y-46347837D01*
X259484638Y-46340869D01*
X259484639Y-46340865D01*
X259485130Y-46337708D01*
X259490253Y-46318180D01*
X259491378Y-46315180D01*
X259491378Y-46315178D01*
X259493852Y-46308580D01*
X259497381Y-46261092D01*
X259498287Y-46253207D01*
X259499912Y-46242772D01*
X259499913Y-46242764D01*
X259500500Y-46238991D01*
X259500500Y-46222791D01*
X259500772Y-46215455D01*
X259501016Y-46212165D01*
X259504476Y-46165608D01*
X259502681Y-46157199D01*
X259500500Y-46136532D01*
X259500500Y-43669748D01*
X260824500Y-43669748D01*
X260829473Y-43694748D01*
X260830518Y-43700000D01*
X260836133Y-43728231D01*
X260880448Y-43794552D01*
X260946769Y-43838867D01*
X260956332Y-43840769D01*
X260956334Y-43840770D01*
X260979005Y-43845279D01*
X261005252Y-43850500D01*
X261300500Y-43850500D01*
X261358691Y-43869407D01*
X261394655Y-43918907D01*
X261399500Y-43949500D01*
X261399500Y-44284318D01*
X261382815Y-44339320D01*
X261361133Y-44371769D01*
X261359231Y-44381332D01*
X261359230Y-44381334D01*
X261354737Y-44403926D01*
X261349500Y-44430252D01*
X261349500Y-44969748D01*
X261361133Y-45028231D01*
X261405448Y-45094552D01*
X261471769Y-45138867D01*
X261481332Y-45140769D01*
X261481334Y-45140770D01*
X261504005Y-45145279D01*
X261530252Y-45150500D01*
X262069748Y-45150500D01*
X262095995Y-45145279D01*
X262118666Y-45140770D01*
X262118668Y-45140769D01*
X262128231Y-45138867D01*
X262194552Y-45094552D01*
X262238867Y-45028231D01*
X262250500Y-44969748D01*
X262250500Y-44430252D01*
X262245263Y-44403926D01*
X262240770Y-44381334D01*
X262240769Y-44381332D01*
X262238867Y-44371769D01*
X262217185Y-44339320D01*
X262200500Y-44284318D01*
X262200500Y-43949500D01*
X262219407Y-43891309D01*
X262268907Y-43855345D01*
X262299500Y-43850500D01*
X262744748Y-43850500D01*
X262770995Y-43845279D01*
X262793666Y-43840770D01*
X262793668Y-43840769D01*
X262803231Y-43838867D01*
X262869552Y-43794552D01*
X262913867Y-43728231D01*
X262919483Y-43700000D01*
X262920527Y-43694748D01*
X262925500Y-43669748D01*
X262925500Y-42909846D01*
X263370483Y-42909846D01*
X263376847Y-42985644D01*
X263378585Y-42995111D01*
X263432674Y-43183743D01*
X263436225Y-43192711D01*
X263525919Y-43367236D01*
X263531142Y-43375341D01*
X263653037Y-43529134D01*
X263659720Y-43536055D01*
X263809164Y-43663241D01*
X263817078Y-43668742D01*
X263988373Y-43764475D01*
X263997201Y-43768332D01*
X264183838Y-43828974D01*
X264193238Y-43831041D01*
X264299432Y-43843704D01*
X264312514Y-43841113D01*
X264313955Y-43839557D01*
X264315000Y-43834803D01*
X264315000Y-43829775D01*
X264515000Y-43829775D01*
X264519122Y-43842460D01*
X264521735Y-43844359D01*
X264524679Y-43844710D01*
X264593385Y-43839424D01*
X264602876Y-43837750D01*
X264791882Y-43784978D01*
X264800862Y-43781496D01*
X264976020Y-43693017D01*
X264984155Y-43687854D01*
X265138787Y-43567042D01*
X265145771Y-43560391D01*
X265273990Y-43411848D01*
X265279546Y-43403973D01*
X265376471Y-43233353D01*
X265380392Y-43224546D01*
X265442334Y-43038346D01*
X265444470Y-43028943D01*
X265458794Y-42915556D01*
X265456294Y-42902455D01*
X265454884Y-42901130D01*
X265449829Y-42900000D01*
X264530680Y-42900000D01*
X264517995Y-42904122D01*
X264515000Y-42908243D01*
X264515000Y-43829775D01*
X264315000Y-43829775D01*
X264315000Y-42915680D01*
X264310878Y-42902995D01*
X264306757Y-42900000D01*
X263385336Y-42900000D01*
X263372651Y-42904122D01*
X263370860Y-42906586D01*
X263370483Y-42909846D01*
X262925500Y-42909846D01*
X262925500Y-42684417D01*
X263371334Y-42684417D01*
X263374016Y-42697484D01*
X263375719Y-42699039D01*
X263380165Y-42700000D01*
X264299320Y-42700000D01*
X264312005Y-42695878D01*
X264315000Y-42691757D01*
X264315000Y-42684320D01*
X264515000Y-42684320D01*
X264519122Y-42697005D01*
X264523243Y-42700000D01*
X265444596Y-42700000D01*
X265457281Y-42695878D01*
X265458854Y-42693713D01*
X265459278Y-42689818D01*
X265450459Y-42599885D01*
X265448589Y-42590437D01*
X265391869Y-42402572D01*
X265388199Y-42393668D01*
X265296072Y-42220401D01*
X265290740Y-42212376D01*
X265166716Y-42060307D01*
X265159922Y-42053466D01*
X265008721Y-41928381D01*
X265000738Y-41922997D01*
X264828114Y-41829660D01*
X264819243Y-41825931D01*
X264631775Y-41767900D01*
X264622341Y-41765963D01*
X264530594Y-41756320D01*
X264517548Y-41759093D01*
X264515881Y-41760945D01*
X264515000Y-41765088D01*
X264515000Y-42684320D01*
X264315000Y-42684320D01*
X264315000Y-41770396D01*
X264310878Y-41757711D01*
X264308563Y-41756028D01*
X264304987Y-41755627D01*
X264222117Y-41763168D01*
X264212654Y-41764974D01*
X264024407Y-41820378D01*
X264015466Y-41823991D01*
X263841573Y-41914899D01*
X263833497Y-41920184D01*
X263680571Y-42043140D01*
X263673687Y-42049881D01*
X263547551Y-42200205D01*
X263542104Y-42208159D01*
X263447573Y-42380111D01*
X263443773Y-42388976D01*
X263384440Y-42576019D01*
X263382435Y-42585450D01*
X263371334Y-42684417D01*
X262925500Y-42684417D01*
X262925500Y-41930252D01*
X262913867Y-41871769D01*
X262869552Y-41805448D01*
X262803231Y-41761133D01*
X262793668Y-41759231D01*
X262793666Y-41759230D01*
X262770995Y-41754721D01*
X262744748Y-41749500D01*
X261005252Y-41749500D01*
X260979005Y-41754721D01*
X260956334Y-41759230D01*
X260956332Y-41759231D01*
X260946769Y-41761133D01*
X260880448Y-41805448D01*
X260836133Y-41871769D01*
X260824500Y-41930252D01*
X260824500Y-43669748D01*
X259500500Y-43669748D01*
X259500500Y-43467166D01*
X259501919Y-43454465D01*
X259501897Y-43454463D01*
X259502463Y-43447431D01*
X259504019Y-43440553D01*
X259500690Y-43386898D01*
X259500500Y-43380767D01*
X259500500Y-43364060D01*
X259500001Y-43360573D01*
X259500000Y-43360565D01*
X259498899Y-43352879D01*
X259498089Y-43344976D01*
X259495578Y-43304499D01*
X259495577Y-43304496D01*
X259495141Y-43297462D01*
X259492748Y-43290833D01*
X259492747Y-43290829D01*
X259491658Y-43287813D01*
X259486777Y-43268236D01*
X259486323Y-43265064D01*
X259486323Y-43265063D01*
X259485323Y-43258082D01*
X259482404Y-43251663D01*
X259482403Y-43251658D01*
X259465619Y-43214743D01*
X259462623Y-43207385D01*
X259448855Y-43169248D01*
X259446460Y-43162613D01*
X259440408Y-43154328D01*
X259430232Y-43136914D01*
X259425984Y-43127572D01*
X259404807Y-43102995D01*
X259394907Y-43091505D01*
X259389967Y-43085284D01*
X259389653Y-43084854D01*
X259381478Y-43073664D01*
X259370014Y-43062200D01*
X259365019Y-43056819D01*
X259337005Y-43024307D01*
X259337004Y-43024306D01*
X259332400Y-43018963D01*
X259325189Y-43014289D01*
X259309032Y-43001218D01*
X257801395Y-41493581D01*
X257793421Y-41483601D01*
X257793404Y-41483616D01*
X257788834Y-41478246D01*
X257785070Y-41472280D01*
X257779785Y-41467612D01*
X257779782Y-41467609D01*
X257744792Y-41436708D01*
X257740322Y-41432508D01*
X257728494Y-41420680D01*
X257719447Y-41413900D01*
X257713301Y-41408896D01*
X257677612Y-41377377D01*
X257668329Y-41373018D01*
X257651034Y-41362627D01*
X257642824Y-41356474D01*
X257621047Y-41348310D01*
X257598254Y-41339765D01*
X257590934Y-41336680D01*
X257554226Y-41319446D01*
X257554222Y-41319445D01*
X257547837Y-41316447D01*
X257540869Y-41315362D01*
X257540865Y-41315361D01*
X257537708Y-41314870D01*
X257518180Y-41309747D01*
X257515180Y-41308622D01*
X257515178Y-41308622D01*
X257508580Y-41306148D01*
X257461092Y-41302619D01*
X257453207Y-41301713D01*
X257442772Y-41300088D01*
X257442764Y-41300087D01*
X257438991Y-41299500D01*
X257422791Y-41299500D01*
X257415455Y-41299228D01*
X257412165Y-41298984D01*
X257365608Y-41295524D01*
X257358713Y-41296996D01*
X257358711Y-41296996D01*
X257357199Y-41297319D01*
X257336532Y-41299500D01*
X254364060Y-41299500D01*
X254360570Y-41300000D01*
X254360567Y-41300000D01*
X254321283Y-41305626D01*
X254258082Y-41314677D01*
X254251659Y-41317597D01*
X254251660Y-41317597D01*
X254152628Y-41362624D01*
X254127572Y-41374016D01*
X254018963Y-41467600D01*
X253940985Y-41587905D01*
X253899907Y-41725261D01*
X253899676Y-41763168D01*
X253899669Y-41764243D01*
X253880407Y-41822318D01*
X253870675Y-41833643D01*
X253786063Y-41918255D01*
X253769760Y-41931420D01*
X253767726Y-41932733D01*
X253767722Y-41932736D01*
X253760848Y-41937175D01*
X253741015Y-41962332D01*
X253737101Y-41966737D01*
X253737102Y-41966738D01*
X253734449Y-41969869D01*
X253731572Y-41972746D01*
X253720956Y-41987601D01*
X253718170Y-41991312D01*
X253688608Y-42028811D01*
X253686042Y-42036118D01*
X253685395Y-42037363D01*
X253680889Y-42043669D01*
X253678545Y-42051508D01*
X253667208Y-42089415D01*
X253665767Y-42093851D01*
X253649945Y-42138906D01*
X253649500Y-42144044D01*
X253649500Y-42146182D01*
X253649426Y-42147901D01*
X253649311Y-42149262D01*
X253647456Y-42155464D01*
X253647777Y-42163635D01*
X253649424Y-42205554D01*
X253649500Y-42209441D01*
X253649500Y-42654534D01*
X253630593Y-42712725D01*
X253626369Y-42717675D01*
X253624217Y-42720818D01*
X253617759Y-42727287D01*
X253572494Y-42829673D01*
X253571999Y-42833921D01*
X253539289Y-42883808D01*
X253482072Y-42905484D01*
X253423042Y-42889389D01*
X253389219Y-42848540D01*
X253388867Y-42846769D01*
X253344552Y-42780448D01*
X253278231Y-42736133D01*
X253268668Y-42734231D01*
X253268666Y-42734230D01*
X253245995Y-42729721D01*
X253219748Y-42724500D01*
X252680252Y-42724500D01*
X252654005Y-42729721D01*
X252631334Y-42734230D01*
X252631332Y-42734231D01*
X252621769Y-42736133D01*
X252555448Y-42780448D01*
X252554558Y-42779116D01*
X252510058Y-42801789D01*
X252479334Y-42801185D01*
X252479310Y-42801425D01*
X252476262Y-42801125D01*
X252475253Y-42801105D01*
X252474462Y-42800948D01*
X252464840Y-42800000D01*
X252115680Y-42800000D01*
X252102995Y-42804122D01*
X252100000Y-42808243D01*
X252100000Y-44784320D01*
X252104122Y-44797005D01*
X252108243Y-44800000D01*
X252464840Y-44800000D01*
X252474464Y-44799052D01*
X252475863Y-44798774D01*
X252476511Y-44798851D01*
X252479310Y-44798575D01*
X252479370Y-44799189D01*
X252536624Y-44805969D01*
X252555741Y-44819293D01*
X252555808Y-44819192D01*
X252613858Y-44857979D01*
X252631526Y-44865298D01*
X252675538Y-44874052D01*
X252685160Y-44875000D01*
X252834320Y-44875000D01*
X252847005Y-44870878D01*
X252850000Y-44866757D01*
X252850000Y-44549000D01*
X252868907Y-44490809D01*
X252918407Y-44454845D01*
X252949000Y-44450000D01*
X252951000Y-44450000D01*
X253009191Y-44468907D01*
X253045155Y-44518407D01*
X253050000Y-44549000D01*
X253050000Y-44859320D01*
X253054122Y-44872005D01*
X253058243Y-44875000D01*
X253214840Y-44875000D01*
X253224464Y-44874052D01*
X253231187Y-44872715D01*
X253291948Y-44879907D01*
X253336878Y-44921440D01*
X253349500Y-44969813D01*
X253349500Y-46069748D01*
X253361133Y-46128231D01*
X253405448Y-46194552D01*
X253471769Y-46238867D01*
X253481332Y-46240769D01*
X253481334Y-46240770D01*
X253504005Y-46245279D01*
X253530252Y-46250500D01*
X255269748Y-46250500D01*
X255295995Y-46245279D01*
X255318666Y-46240770D01*
X255318668Y-46240769D01*
X255328231Y-46238867D01*
X255394552Y-46194552D01*
X255438867Y-46128231D01*
X255450500Y-46069748D01*
X255450500Y-45309846D01*
X255895483Y-45309846D01*
X255901847Y-45385644D01*
X255903585Y-45395111D01*
X255957674Y-45583743D01*
X255961225Y-45592711D01*
X256050919Y-45767236D01*
X256056142Y-45775341D01*
X256178037Y-45929134D01*
X256184720Y-45936055D01*
X256334164Y-46063241D01*
X256342078Y-46068742D01*
X256513373Y-46164475D01*
X256522201Y-46168332D01*
X256708838Y-46228974D01*
X256718238Y-46231041D01*
X256824432Y-46243704D01*
X256837514Y-46241113D01*
X256838955Y-46239557D01*
X256840000Y-46234803D01*
X256840000Y-46229775D01*
X257040000Y-46229775D01*
X257044122Y-46242460D01*
X257046735Y-46244359D01*
X257049679Y-46244710D01*
X257118385Y-46239424D01*
X257127876Y-46237750D01*
X257316882Y-46184978D01*
X257325862Y-46181496D01*
X257501020Y-46093017D01*
X257509155Y-46087854D01*
X257663787Y-45967042D01*
X257670771Y-45960391D01*
X257798990Y-45811848D01*
X257804546Y-45803973D01*
X257901471Y-45633353D01*
X257905392Y-45624546D01*
X257967334Y-45438346D01*
X257969469Y-45428944D01*
X257983794Y-45315556D01*
X257981294Y-45302455D01*
X257979884Y-45301130D01*
X257974829Y-45300000D01*
X257055680Y-45300000D01*
X257042995Y-45304122D01*
X257040000Y-45308243D01*
X257040000Y-46229775D01*
X256840000Y-46229775D01*
X256840000Y-45315680D01*
X256835878Y-45302995D01*
X256831757Y-45300000D01*
X255910336Y-45300000D01*
X255897651Y-45304122D01*
X255895860Y-45306586D01*
X255895483Y-45309846D01*
X255450500Y-45309846D01*
X255450500Y-45084417D01*
X255896334Y-45084417D01*
X255899016Y-45097484D01*
X255900719Y-45099039D01*
X255905165Y-45100000D01*
X256824320Y-45100000D01*
X256837005Y-45095878D01*
X256840000Y-45091757D01*
X256840000Y-45084320D01*
X257040000Y-45084320D01*
X257044122Y-45097005D01*
X257048243Y-45100000D01*
X257969596Y-45100000D01*
X257982281Y-45095878D01*
X257983854Y-45093713D01*
X257984278Y-45089818D01*
X257975459Y-44999885D01*
X257973589Y-44990437D01*
X257916869Y-44802572D01*
X257913199Y-44793668D01*
X257821072Y-44620401D01*
X257815740Y-44612376D01*
X257691716Y-44460307D01*
X257684922Y-44453466D01*
X257533721Y-44328381D01*
X257525738Y-44322997D01*
X257353114Y-44229660D01*
X257344243Y-44225931D01*
X257156775Y-44167900D01*
X257147341Y-44165963D01*
X257055594Y-44156320D01*
X257042548Y-44159093D01*
X257040881Y-44160945D01*
X257040000Y-44165088D01*
X257040000Y-45084320D01*
X256840000Y-45084320D01*
X256840000Y-44170396D01*
X256835878Y-44157711D01*
X256833563Y-44156028D01*
X256829987Y-44155627D01*
X256747117Y-44163168D01*
X256737654Y-44164974D01*
X256549407Y-44220378D01*
X256540466Y-44223991D01*
X256366573Y-44314899D01*
X256358497Y-44320184D01*
X256205571Y-44443140D01*
X256198687Y-44449881D01*
X256072551Y-44600205D01*
X256067104Y-44608159D01*
X255972573Y-44780111D01*
X255968773Y-44788976D01*
X255909440Y-44976019D01*
X255907435Y-44985450D01*
X255896334Y-45084417D01*
X255450500Y-45084417D01*
X255450500Y-44330252D01*
X255445279Y-44304005D01*
X255440770Y-44281334D01*
X255440769Y-44281332D01*
X255438867Y-44271769D01*
X255394552Y-44205448D01*
X255328231Y-44161133D01*
X255318668Y-44159231D01*
X255318666Y-44159230D01*
X255295995Y-44154721D01*
X255269748Y-44149500D01*
X255139758Y-44149500D01*
X255081567Y-44130593D01*
X255045603Y-44081093D01*
X255045603Y-44019907D01*
X255049212Y-44010470D01*
X255064000Y-43977020D01*
X255067873Y-43962815D01*
X255069668Y-43947420D01*
X255070000Y-43941708D01*
X255070000Y-43915680D01*
X255065878Y-43902995D01*
X255061757Y-43900000D01*
X254639000Y-43900000D01*
X254580809Y-43881093D01*
X254544845Y-43831593D01*
X254540000Y-43801000D01*
X254540000Y-43684320D01*
X254740000Y-43684320D01*
X254744122Y-43697005D01*
X254748243Y-43700000D01*
X255054320Y-43700000D01*
X255067005Y-43695878D01*
X255070000Y-43691757D01*
X255070000Y-43658361D01*
X255069654Y-43652515D01*
X255067766Y-43636647D01*
X255063872Y-43622481D01*
X255025230Y-43535486D01*
X255015054Y-43520679D01*
X254964382Y-43470096D01*
X254936556Y-43415604D01*
X254946075Y-43355163D01*
X254964260Y-43330088D01*
X255015367Y-43278892D01*
X255025517Y-43264069D01*
X255064000Y-43177020D01*
X255067873Y-43162815D01*
X255069668Y-43147420D01*
X255070000Y-43141708D01*
X255070000Y-43115680D01*
X255065878Y-43102995D01*
X255061757Y-43100000D01*
X254755680Y-43100000D01*
X254742995Y-43104122D01*
X254740000Y-43108243D01*
X254740000Y-43684320D01*
X254540000Y-43684320D01*
X254540000Y-42884320D01*
X254740000Y-42884320D01*
X254744122Y-42897005D01*
X254748243Y-42900000D01*
X255054320Y-42900000D01*
X255067005Y-42895878D01*
X255070000Y-42891757D01*
X255070000Y-42858361D01*
X255069654Y-42852515D01*
X255067766Y-42836647D01*
X255063872Y-42822481D01*
X255025230Y-42735486D01*
X255015054Y-42720679D01*
X254948892Y-42654633D01*
X254934069Y-42644483D01*
X254847020Y-42606000D01*
X254832815Y-42602127D01*
X254817420Y-42600332D01*
X254811708Y-42600000D01*
X254755680Y-42600000D01*
X254742995Y-42604122D01*
X254740000Y-42608243D01*
X254740000Y-42884320D01*
X254540000Y-42884320D01*
X254540000Y-42615680D01*
X254535878Y-42602995D01*
X254531757Y-42600000D01*
X254468361Y-42600000D01*
X254462505Y-42600347D01*
X254461193Y-42600503D01*
X254460889Y-42600443D01*
X254459584Y-42600520D01*
X254459564Y-42600180D01*
X254401176Y-42588601D01*
X254359618Y-42543695D01*
X254350500Y-42502196D01*
X254350500Y-42399500D01*
X254369407Y-42341309D01*
X254418907Y-42305345D01*
X254449500Y-42300500D01*
X257151678Y-42300500D01*
X257209869Y-42319407D01*
X257221682Y-42329496D01*
X258470504Y-43578318D01*
X258498281Y-43632835D01*
X258499500Y-43648322D01*
X258499500Y-45951678D01*
X258480593Y-46009869D01*
X258470504Y-46021682D01*
X256621682Y-47870504D01*
X256567165Y-47898281D01*
X256551678Y-47899500D01*
X255667166Y-47899500D01*
X255654465Y-47898081D01*
X255654463Y-47898103D01*
X255647431Y-47897537D01*
X255640553Y-47895981D01*
X255589393Y-47899155D01*
X255586898Y-47899310D01*
X255580767Y-47899500D01*
X255564060Y-47899500D01*
X255560573Y-47899999D01*
X255560565Y-47900000D01*
X255552879Y-47901101D01*
X255544976Y-47901911D01*
X255504499Y-47904422D01*
X255504496Y-47904423D01*
X255497462Y-47904859D01*
X255490833Y-47907252D01*
X255490829Y-47907253D01*
X255487813Y-47908342D01*
X255468237Y-47913223D01*
X255467045Y-47913394D01*
X255465064Y-47913677D01*
X255465063Y-47913677D01*
X255458082Y-47914677D01*
X255451663Y-47917596D01*
X255451658Y-47917597D01*
X255414743Y-47934381D01*
X255407385Y-47937377D01*
X255400690Y-47939794D01*
X255362613Y-47953540D01*
X255354328Y-47959592D01*
X255336914Y-47969768D01*
X255327572Y-47974016D01*
X255291493Y-48005104D01*
X255285284Y-48010033D01*
X255276750Y-48016267D01*
X255276746Y-48016271D01*
X255273664Y-48018522D01*
X255262200Y-48029986D01*
X255256819Y-48034981D01*
X255218963Y-48067600D01*
X255215126Y-48073520D01*
X255214289Y-48074811D01*
X255201218Y-48090968D01*
X254221682Y-49070504D01*
X254167165Y-49098281D01*
X254151678Y-49099500D01*
X252380252Y-49099500D01*
X252354005Y-49104721D01*
X252331334Y-49109230D01*
X252331332Y-49109231D01*
X252321769Y-49111133D01*
X252295471Y-49128705D01*
X252289320Y-49132815D01*
X252234318Y-49149500D01*
X252211459Y-49149500D01*
X252207572Y-49149424D01*
X252157397Y-49147452D01*
X252157394Y-49147452D01*
X252150006Y-49147162D01*
X252143228Y-49148959D01*
X252133403Y-49149500D01*
X250827611Y-49149500D01*
X250769420Y-49130593D01*
X250757607Y-49120504D01*
X250256107Y-48619004D01*
X250228330Y-48564487D01*
X250237901Y-48504055D01*
X250281166Y-48460790D01*
X250326111Y-48450000D01*
X250746820Y-48450000D01*
X250759505Y-48445878D01*
X250762500Y-48441757D01*
X250762500Y-48434319D01*
X250962500Y-48434319D01*
X250966622Y-48447004D01*
X250970743Y-48449999D01*
X251479557Y-48449999D01*
X251486754Y-48449472D01*
X251544355Y-48440994D01*
X251558873Y-48436483D01*
X251649216Y-48392127D01*
X251662342Y-48382730D01*
X251733101Y-48311848D01*
X251742474Y-48298706D01*
X251786676Y-48208278D01*
X251791161Y-48193769D01*
X251799483Y-48136722D01*
X251800000Y-48129595D01*
X251800000Y-48065680D01*
X251795878Y-48052995D01*
X251791757Y-48050000D01*
X250978180Y-48050000D01*
X250965495Y-48054122D01*
X250962500Y-48058243D01*
X250962500Y-48434319D01*
X250762500Y-48434319D01*
X250762500Y-47834320D01*
X250962500Y-47834320D01*
X250966622Y-47847005D01*
X250970743Y-47850000D01*
X251784319Y-47850000D01*
X251797004Y-47845878D01*
X251799999Y-47841757D01*
X251799999Y-47770443D01*
X251799472Y-47763246D01*
X251790994Y-47705645D01*
X251786483Y-47691127D01*
X251742127Y-47600784D01*
X251732730Y-47587658D01*
X251661848Y-47516899D01*
X251648706Y-47507526D01*
X251558278Y-47463324D01*
X251543769Y-47458839D01*
X251486722Y-47450517D01*
X251479595Y-47450000D01*
X250978180Y-47450000D01*
X250965495Y-47454122D01*
X250962500Y-47458243D01*
X250962500Y-47834320D01*
X250762500Y-47834320D01*
X250762500Y-47465681D01*
X250758378Y-47452996D01*
X250754257Y-47450001D01*
X250245443Y-47450001D01*
X250238246Y-47450528D01*
X250180645Y-47459006D01*
X250166127Y-47463517D01*
X250068439Y-47511479D01*
X250067669Y-47509911D01*
X250018807Y-47525410D01*
X249960750Y-47506095D01*
X249925134Y-47456345D01*
X249920500Y-47426412D01*
X249920500Y-47365828D01*
X249910070Y-47294974D01*
X249857176Y-47187243D01*
X249853144Y-47183218D01*
X251799500Y-47183218D01*
X251800028Y-47186801D01*
X251800028Y-47186808D01*
X251804718Y-47218666D01*
X251809642Y-47252112D01*
X251861068Y-47356855D01*
X251943650Y-47439293D01*
X252048482Y-47490536D01*
X252056084Y-47491645D01*
X252056087Y-47491646D01*
X252113237Y-47499983D01*
X252113239Y-47499983D01*
X252116782Y-47500500D01*
X253358218Y-47500500D01*
X253361801Y-47499972D01*
X253361808Y-47499972D01*
X253419499Y-47491479D01*
X253419501Y-47491478D01*
X253427112Y-47490358D01*
X253531855Y-47438932D01*
X253614293Y-47356350D01*
X253665536Y-47251518D01*
X253666645Y-47243916D01*
X253666646Y-47243913D01*
X253674983Y-47186763D01*
X253674983Y-47186761D01*
X253675500Y-47183218D01*
X253675500Y-46816782D01*
X253674908Y-46812757D01*
X253666479Y-46755501D01*
X253666478Y-46755499D01*
X253665358Y-46747888D01*
X253613932Y-46643145D01*
X253601017Y-46630252D01*
X253550460Y-46579784D01*
X253531350Y-46560707D01*
X253426518Y-46509464D01*
X253418916Y-46508355D01*
X253418913Y-46508354D01*
X253361763Y-46500017D01*
X253361761Y-46500017D01*
X253358218Y-46499500D01*
X252116782Y-46499500D01*
X252113199Y-46500028D01*
X252113192Y-46500028D01*
X252055501Y-46508521D01*
X252055499Y-46508522D01*
X252047888Y-46509642D01*
X252040982Y-46513033D01*
X252040981Y-46513033D01*
X252009493Y-46528493D01*
X251943145Y-46561068D01*
X251860707Y-46643650D01*
X251809464Y-46748482D01*
X251808355Y-46756084D01*
X251808354Y-46756087D01*
X251801236Y-46804884D01*
X251799500Y-46816782D01*
X251799500Y-47183218D01*
X249853144Y-47183218D01*
X249839651Y-47169748D01*
X249778029Y-47108234D01*
X249772238Y-47102453D01*
X249744539Y-47088913D01*
X249700566Y-47046371D01*
X249689995Y-46986106D01*
X249716866Y-46931137D01*
X249744388Y-46911105D01*
X249765413Y-46900782D01*
X249765414Y-46900781D01*
X249772757Y-46897176D01*
X249857547Y-46812238D01*
X249910253Y-46704415D01*
X249919962Y-46637860D01*
X249919983Y-46637717D01*
X249919983Y-46637715D01*
X249920500Y-46634172D01*
X249920500Y-46574189D01*
X249939407Y-46515998D01*
X249988907Y-46480034D01*
X250050093Y-46480034D01*
X250068613Y-46489369D01*
X250068650Y-46489293D01*
X250173482Y-46540536D01*
X250181084Y-46541645D01*
X250181087Y-46541646D01*
X250238237Y-46549983D01*
X250238239Y-46549983D01*
X250241782Y-46550500D01*
X251483218Y-46550500D01*
X251486801Y-46549972D01*
X251486808Y-46549972D01*
X251544499Y-46541479D01*
X251544501Y-46541478D01*
X251552112Y-46540358D01*
X251656855Y-46488932D01*
X251662879Y-46482898D01*
X251733513Y-46412140D01*
X251739293Y-46406350D01*
X251790536Y-46301518D01*
X251791645Y-46293916D01*
X251791646Y-46293913D01*
X251799983Y-46236763D01*
X251799983Y-46236761D01*
X251800500Y-46233218D01*
X251800500Y-45866782D01*
X251797973Y-45849611D01*
X251791479Y-45805501D01*
X251791478Y-45805499D01*
X251790358Y-45797888D01*
X251778176Y-45773075D01*
X251742538Y-45700490D01*
X251738932Y-45693145D01*
X251656350Y-45610707D01*
X251551518Y-45559464D01*
X251543916Y-45558355D01*
X251543913Y-45558354D01*
X251486763Y-45550017D01*
X251486761Y-45550017D01*
X251483218Y-45549500D01*
X251474500Y-45549500D01*
X251416309Y-45530593D01*
X251380345Y-45481093D01*
X251375500Y-45450500D01*
X251375500Y-44918608D01*
X251394407Y-44860417D01*
X251419498Y-44836293D01*
X251444552Y-44819552D01*
X251445442Y-44820884D01*
X251489942Y-44798211D01*
X251520666Y-44798815D01*
X251520690Y-44798575D01*
X251523738Y-44798875D01*
X251524747Y-44798895D01*
X251525538Y-44799052D01*
X251535160Y-44800000D01*
X251884320Y-44800000D01*
X251897005Y-44795878D01*
X251900000Y-44791757D01*
X251900000Y-42815680D01*
X251895878Y-42802995D01*
X251891757Y-42800000D01*
X251535160Y-42800000D01*
X251525538Y-42800948D01*
X251524747Y-42801105D01*
X251524380Y-42801062D01*
X251520690Y-42801425D01*
X251520610Y-42800616D01*
X251463986Y-42793916D01*
X251444586Y-42780397D01*
X251444552Y-42780448D01*
X251378231Y-42736133D01*
X251368668Y-42734231D01*
X251368666Y-42734230D01*
X251345995Y-42729721D01*
X251319748Y-42724500D01*
X250649500Y-42724500D01*
X250591309Y-42705593D01*
X250555345Y-42656093D01*
X250550500Y-42625500D01*
X250550500Y-42455354D01*
X250547382Y-42429154D01*
X250501939Y-42326847D01*
X250480400Y-42305345D01*
X250429179Y-42254214D01*
X250422713Y-42247759D01*
X250393591Y-42234884D01*
X250327136Y-42205504D01*
X250327134Y-42205504D01*
X250320327Y-42202494D01*
X250300693Y-42200205D01*
X250297494Y-42199832D01*
X250297493Y-42199832D01*
X250294646Y-42199500D01*
X249945354Y-42199500D01*
X249928951Y-42201452D01*
X249926531Y-42201740D01*
X249926530Y-42201740D01*
X249919154Y-42202618D01*
X249840254Y-42237664D01*
X249779400Y-42244007D01*
X249760041Y-42237735D01*
X249680327Y-42202494D01*
X249660693Y-42200205D01*
X249657494Y-42199832D01*
X249657493Y-42199832D01*
X249654646Y-42199500D01*
X249305354Y-42199500D01*
X249288951Y-42201452D01*
X249286531Y-42201740D01*
X249286530Y-42201740D01*
X249279154Y-42202618D01*
X249176847Y-42248061D01*
X249097759Y-42327287D01*
X249094064Y-42335645D01*
X249065834Y-42399500D01*
X249052494Y-42429673D01*
X249049500Y-42455354D01*
X249049500Y-42744646D01*
X249052618Y-42770846D01*
X249098061Y-42873153D01*
X249124955Y-42900000D01*
X249125442Y-42900486D01*
X249153268Y-42954978D01*
X249154500Y-42970551D01*
X249154500Y-43029489D01*
X249135593Y-43087680D01*
X249125565Y-43099431D01*
X249104216Y-43120818D01*
X249104214Y-43120820D01*
X249097759Y-43127287D01*
X249090085Y-43144646D01*
X249059095Y-43214743D01*
X249052494Y-43229673D01*
X249049500Y-43255354D01*
X249049500Y-43544646D01*
X249052618Y-43570846D01*
X249062460Y-43593003D01*
X249068801Y-43653859D01*
X249038162Y-43706820D01*
X248988752Y-43730760D01*
X248978949Y-43732444D01*
X248789193Y-43802449D01*
X248615371Y-43905862D01*
X248611956Y-43908857D01*
X248611953Y-43908859D01*
X248534231Y-43977020D01*
X248463305Y-44039220D01*
X248460497Y-44042782D01*
X248361863Y-44167900D01*
X248338089Y-44198057D01*
X248243914Y-44377053D01*
X248242569Y-44381384D01*
X248242568Y-44381387D01*
X248190524Y-44549000D01*
X248183937Y-44570213D01*
X248179446Y-44608159D01*
X248161316Y-44761340D01*
X248160164Y-44771069D01*
X246625000Y-44771069D01*
X246625000Y-44684320D01*
X246825000Y-44684320D01*
X246829122Y-44697005D01*
X246833243Y-44700000D01*
X247809320Y-44700000D01*
X247822005Y-44695878D01*
X247825000Y-44691757D01*
X247825000Y-43885160D01*
X247824052Y-43875538D01*
X247815298Y-43831526D01*
X247807979Y-43813858D01*
X247774611Y-43763918D01*
X247761082Y-43750389D01*
X247711142Y-43717021D01*
X247693474Y-43709702D01*
X247649462Y-43700948D01*
X247639840Y-43700000D01*
X246840680Y-43700000D01*
X246827995Y-43704122D01*
X246825000Y-43708243D01*
X246825000Y-44684320D01*
X246625000Y-44684320D01*
X246625000Y-43715680D01*
X246620878Y-43702995D01*
X246616757Y-43700000D01*
X245899000Y-43700000D01*
X245840809Y-43681093D01*
X245804845Y-43631593D01*
X245800000Y-43601000D01*
X245800000Y-37839438D01*
X246945066Y-37839438D01*
X246971883Y-38061044D01*
X246973176Y-38065249D01*
X246973177Y-38065251D01*
X247014776Y-38200471D01*
X247037519Y-38274400D01*
X247139901Y-38472759D01*
X247275790Y-38649854D01*
X247279046Y-38652817D01*
X247279049Y-38652820D01*
X247386341Y-38750448D01*
X247440893Y-38800086D01*
X247629990Y-38918707D01*
X247634072Y-38920348D01*
X247634076Y-38920350D01*
X247762877Y-38972127D01*
X247837105Y-39001966D01*
X248055690Y-39047233D01*
X248112349Y-39050500D01*
X248256630Y-39050500D01*
X248258824Y-39050304D01*
X248258828Y-39050304D01*
X248417951Y-39036103D01*
X248417955Y-39036102D01*
X248422339Y-39035711D01*
X248426584Y-39034550D01*
X248426588Y-39034549D01*
X248633400Y-38977971D01*
X248633401Y-38977971D01*
X248637651Y-38976808D01*
X248756018Y-38920350D01*
X248835151Y-38882606D01*
X248835156Y-38882603D01*
X248839129Y-38880708D01*
X249020405Y-38750448D01*
X249115014Y-38652820D01*
X249172681Y-38593312D01*
X249175749Y-38590146D01*
X249300250Y-38404868D01*
X249389974Y-38200471D01*
X249442085Y-37983415D01*
X249450386Y-37839438D01*
X264945066Y-37839438D01*
X264971883Y-38061044D01*
X264973176Y-38065249D01*
X264973177Y-38065251D01*
X265014776Y-38200471D01*
X265037519Y-38274400D01*
X265139901Y-38472759D01*
X265275790Y-38649854D01*
X265279046Y-38652817D01*
X265279049Y-38652820D01*
X265386341Y-38750448D01*
X265440893Y-38800086D01*
X265629990Y-38918707D01*
X265634072Y-38920348D01*
X265634076Y-38920350D01*
X265762877Y-38972127D01*
X265837105Y-39001966D01*
X266055690Y-39047233D01*
X266112349Y-39050500D01*
X266256630Y-39050500D01*
X266258824Y-39050304D01*
X266258828Y-39050304D01*
X266417951Y-39036103D01*
X266417955Y-39036102D01*
X266422339Y-39035711D01*
X266426584Y-39034550D01*
X266426588Y-39034549D01*
X266633400Y-38977971D01*
X266633401Y-38977971D01*
X266637651Y-38976808D01*
X266756018Y-38920350D01*
X266835151Y-38882606D01*
X266835156Y-38882603D01*
X266839129Y-38880708D01*
X267020405Y-38750448D01*
X267115014Y-38652820D01*
X267172681Y-38593312D01*
X267175749Y-38590146D01*
X267300250Y-38404868D01*
X267389974Y-38200471D01*
X267442085Y-37983415D01*
X267454934Y-37760562D01*
X267428117Y-37538956D01*
X267386541Y-37403808D01*
X267363778Y-37329815D01*
X267363777Y-37329812D01*
X267362481Y-37325600D01*
X267260099Y-37127241D01*
X267124210Y-36950146D01*
X267120954Y-36947183D01*
X267120951Y-36947180D01*
X266962361Y-36802875D01*
X266962362Y-36802875D01*
X266959107Y-36799914D01*
X266770010Y-36681293D01*
X266765928Y-36679652D01*
X266765924Y-36679650D01*
X266622585Y-36622029D01*
X266562895Y-36598034D01*
X266344310Y-36552767D01*
X266287651Y-36549500D01*
X266143370Y-36549500D01*
X266141176Y-36549696D01*
X266141172Y-36549696D01*
X265982049Y-36563897D01*
X265982045Y-36563898D01*
X265977661Y-36564289D01*
X265973416Y-36565450D01*
X265973412Y-36565451D01*
X265848301Y-36599678D01*
X265762349Y-36623192D01*
X265758371Y-36625089D01*
X265758372Y-36625089D01*
X265564849Y-36717394D01*
X265564844Y-36717397D01*
X265560871Y-36719292D01*
X265379595Y-36849552D01*
X265376522Y-36852723D01*
X265376521Y-36852724D01*
X265282112Y-36950146D01*
X265224251Y-37009854D01*
X265099750Y-37195132D01*
X265010026Y-37399529D01*
X264957915Y-37616585D01*
X264945066Y-37839438D01*
X249450386Y-37839438D01*
X249454934Y-37760562D01*
X249428117Y-37538956D01*
X249386541Y-37403808D01*
X249363778Y-37329815D01*
X249363777Y-37329812D01*
X249362481Y-37325600D01*
X249260099Y-37127241D01*
X249124210Y-36950146D01*
X249120954Y-36947183D01*
X249120951Y-36947180D01*
X248962361Y-36802875D01*
X248962362Y-36802875D01*
X248959107Y-36799914D01*
X248770010Y-36681293D01*
X248765928Y-36679652D01*
X248765924Y-36679650D01*
X248622585Y-36622029D01*
X248562895Y-36598034D01*
X248344310Y-36552767D01*
X248287651Y-36549500D01*
X248143370Y-36549500D01*
X248141176Y-36549696D01*
X248141172Y-36549696D01*
X247982049Y-36563897D01*
X247982045Y-36563898D01*
X247977661Y-36564289D01*
X247973416Y-36565450D01*
X247973412Y-36565451D01*
X247848301Y-36599678D01*
X247762349Y-36623192D01*
X247758371Y-36625089D01*
X247758372Y-36625089D01*
X247564849Y-36717394D01*
X247564844Y-36717397D01*
X247560871Y-36719292D01*
X247379595Y-36849552D01*
X247376522Y-36852723D01*
X247376521Y-36852724D01*
X247282112Y-36950146D01*
X247224251Y-37009854D01*
X247099750Y-37195132D01*
X247010026Y-37399529D01*
X246957915Y-37616585D01*
X246945066Y-37839438D01*
X245800000Y-37839438D01*
X245800000Y-35499000D01*
X245818907Y-35440809D01*
X245868407Y-35404845D01*
X245899000Y-35400000D01*
X268501000Y-35400000D01*
X268559191Y-35418907D01*
G37*
%TD.AperFunction*%
%TD*%
M02*
