%TF.GenerationSoftware,KiCad,Pcbnew,(6.0.2)*%
%TF.CreationDate,2022-05-16T06:01:07+03:00*%
%TF.ProjectId,FLIM_detector,464c494d-5f64-4657-9465-63746f722e6b,rev?*%
%TF.SameCoordinates,Original*%
%TF.FileFunction,Soldermask,Top*%
%TF.FilePolarity,Negative*%
%FSLAX46Y46*%
G04 Gerber Fmt 4.6, Leading zero omitted, Abs format (unit mm)*
G04 Created by KiCad (PCBNEW (6.0.2)) date 2022-05-16 06:01:07*
%MOMM*%
%LPD*%
G01*
G04 APERTURE LIST*
G04 Aperture macros list*
%AMRoundRect*
0 Rectangle with rounded corners*
0 $1 Rounding radius*
0 $2 $3 $4 $5 $6 $7 $8 $9 X,Y pos of 4 corners*
0 Add a 4 corners polygon primitive as box body*
4,1,4,$2,$3,$4,$5,$6,$7,$8,$9,$2,$3,0*
0 Add four circle primitives for the rounded corners*
1,1,$1+$1,$2,$3*
1,1,$1+$1,$4,$5*
1,1,$1+$1,$6,$7*
1,1,$1+$1,$8,$9*
0 Add four rect primitives between the rounded corners*
20,1,$1+$1,$2,$3,$4,$5,0*
20,1,$1+$1,$4,$5,$6,$7,0*
20,1,$1+$1,$6,$7,$8,$9,0*
20,1,$1+$1,$8,$9,$2,$3,0*%
G04 Aperture macros list end*
%ADD10RoundRect,0.100000X-0.130000X-0.100000X0.130000X-0.100000X0.130000X0.100000X-0.130000X0.100000X0*%
%ADD11RoundRect,0.237500X0.237500X-0.300000X0.237500X0.300000X-0.237500X0.300000X-0.237500X-0.300000X0*%
%ADD12R,0.500000X0.250000*%
%ADD13R,0.900000X1.600000*%
%ADD14RoundRect,0.100000X0.130000X0.100000X-0.130000X0.100000X-0.130000X-0.100000X0.130000X-0.100000X0*%
%ADD15C,2.100000*%
%ADD16R,1.700000X1.700000*%
%ADD17O,1.700000X1.700000*%
%ADD18R,0.500000X0.500000*%
%ADD19R,2.000000X1.500000*%
%ADD20R,2.000000X3.800000*%
%ADD21RoundRect,0.150000X-0.587500X-0.150000X0.587500X-0.150000X0.587500X0.150000X-0.587500X0.150000X0*%
%ADD22RoundRect,0.160000X-0.160000X0.197500X-0.160000X-0.197500X0.160000X-0.197500X0.160000X0.197500X0*%
%ADD23R,1.800000X1.800000*%
%ADD24C,1.800000*%
G04 APERTURE END LIST*
D10*
%TO.C,R1*%
X249480000Y-43400000D03*
X250120000Y-43400000D03*
%TD*%
D11*
%TO.C,C4*%
X261800000Y-50200000D03*
X261800000Y-48475000D03*
%TD*%
D12*
%TO.C,U2*%
X251050000Y-43050000D03*
X251050000Y-43550000D03*
X251050000Y-44050000D03*
X251050000Y-44550000D03*
X252950000Y-44550000D03*
X252950000Y-44050000D03*
X252950000Y-43550000D03*
X252950000Y-43050000D03*
D13*
X252000000Y-43800000D03*
%TD*%
D14*
%TO.C,C3*%
X254640000Y-43800000D03*
X254000000Y-43800000D03*
%TD*%
D11*
%TO.C,C5*%
X261800000Y-53525000D03*
X261800000Y-51800000D03*
%TD*%
D10*
%TO.C,C1*%
X249480000Y-42600000D03*
X250120000Y-42600000D03*
%TD*%
D15*
%TO.C,REF\u002A\u002A*%
X248200000Y-37800000D03*
%TD*%
D16*
%TO.C,J1*%
X261875000Y-42800000D03*
D17*
X264415000Y-42800000D03*
%TD*%
D15*
%TO.C,REF\u002A\u002A*%
X266200000Y-53600000D03*
%TD*%
D18*
%TO.C,D1*%
X261800000Y-46900000D03*
X261800000Y-44700000D03*
%TD*%
D19*
%TO.C,U1*%
X259700000Y-53500000D03*
D20*
X253400000Y-51200000D03*
D19*
X259700000Y-51200000D03*
X259700000Y-48900000D03*
%TD*%
D14*
%TO.C,C2*%
X254640000Y-43000000D03*
X254000000Y-43000000D03*
%TD*%
D15*
%TO.C,REF\u002A\u002A*%
X248200000Y-53600000D03*
%TD*%
D21*
%TO.C,U3*%
X250862500Y-46050000D03*
X250862500Y-47950000D03*
X252737500Y-47000000D03*
%TD*%
D22*
%TO.C,R2*%
X249400000Y-46402500D03*
X249400000Y-47597500D03*
%TD*%
D15*
%TO.C,REF\u002A\u002A*%
X266200000Y-37800000D03*
%TD*%
D23*
%TO.C,D2*%
X246725000Y-44800000D03*
D24*
X249265000Y-44800000D03*
%TD*%
D16*
%TO.C,J2*%
X254400000Y-45200000D03*
D17*
X256940000Y-45200000D03*
%TD*%
M02*
