%TF.GenerationSoftware,KiCad,Pcbnew,(6.0.2)*%
%TF.CreationDate,2022-05-16T06:01:07+03:00*%
%TF.ProjectId,FLIM_detector,464c494d-5f64-4657-9465-63746f722e6b,rev?*%
%TF.SameCoordinates,Original*%
%TF.FileFunction,Copper,L2,Bot*%
%TF.FilePolarity,Positive*%
%FSLAX46Y46*%
G04 Gerber Fmt 4.6, Leading zero omitted, Abs format (unit mm)*
G04 Created by KiCad (PCBNEW (6.0.2)) date 2022-05-16 06:01:07*
%MOMM*%
%LPD*%
G01*
G04 APERTURE LIST*
%TA.AperFunction,SMDPad,CuDef*%
%ADD10R,0.900000X1.600000*%
%TD*%
%TA.AperFunction,ComponentPad*%
%ADD11C,0.600000*%
%TD*%
%TA.AperFunction,ComponentPad*%
%ADD12R,1.700000X1.700000*%
%TD*%
%TA.AperFunction,ComponentPad*%
%ADD13O,1.700000X1.700000*%
%TD*%
%TA.AperFunction,ComponentPad*%
%ADD14R,1.800000X1.800000*%
%TD*%
%TA.AperFunction,ComponentPad*%
%ADD15C,1.800000*%
%TD*%
%TA.AperFunction,ViaPad*%
%ADD16C,0.800000*%
%TD*%
G04 APERTURE END LIST*
D10*
%TO.P,U2,9,V-*%
%TO.N,GND*%
X252000000Y-43800000D03*
D11*
X252000000Y-44300000D03*
X252000000Y-43300000D03*
%TD*%
D12*
%TO.P,J1,1,Pin_1*%
%TO.N,Net-(D1-Pad2)*%
X261875000Y-42800000D03*
D13*
%TO.P,J1,2,Pin_2*%
%TO.N,GND*%
X264415000Y-42800000D03*
%TD*%
D14*
%TO.P,D2,1,K*%
%TO.N,GND*%
X246725000Y-44800000D03*
D15*
%TO.P,D2,2,A*%
%TO.N,Net-(U2-Pad3)*%
X249265000Y-44800000D03*
%TD*%
D12*
%TO.P,J2,1,Pin_1*%
%TO.N,Net-(J2-Pad1)*%
X254400000Y-45200000D03*
D13*
%TO.P,J2,2,Pin_2*%
%TO.N,GND*%
X256940000Y-45200000D03*
%TD*%
D16*
%TO.N,GND*%
X252200000Y-40400000D03*
X260000000Y-46800000D03*
X253000000Y-48200000D03*
X248400000Y-49000000D03*
X246600000Y-48400000D03*
X263400000Y-39200000D03*
X266200000Y-45400000D03*
X264200000Y-46000000D03*
X265800000Y-47000000D03*
X257600000Y-49600000D03*
X254600000Y-38600000D03*
X256200000Y-47000000D03*
X261400000Y-39200000D03*
X247000000Y-42000000D03*
X256984812Y-39982490D03*
X258800000Y-38800000D03*
X252583886Y-45782894D03*
X257200000Y-43200000D03*
X256400000Y-53000000D03*
%TD*%
%TA.AperFunction,Conductor*%
%TO.N,GND*%
G36*
X268559191Y-35418907D02*
G01*
X268595155Y-35468407D01*
X268600000Y-35499000D01*
X268600000Y-55901000D01*
X268581093Y-55959191D01*
X268531593Y-55995155D01*
X268501000Y-56000000D01*
X245899000Y-56000000D01*
X245840809Y-55981093D01*
X245804845Y-55931593D01*
X245800000Y-55901000D01*
X245800000Y-53639438D01*
X246945066Y-53639438D01*
X246971883Y-53861044D01*
X246973176Y-53865249D01*
X246973177Y-53865251D01*
X247014776Y-54000471D01*
X247037519Y-54074400D01*
X247139901Y-54272759D01*
X247275790Y-54449854D01*
X247279046Y-54452817D01*
X247279049Y-54452820D01*
X247386341Y-54550448D01*
X247440893Y-54600086D01*
X247629990Y-54718707D01*
X247634072Y-54720348D01*
X247634076Y-54720350D01*
X247762877Y-54772127D01*
X247837105Y-54801966D01*
X248055690Y-54847233D01*
X248112349Y-54850500D01*
X248256630Y-54850500D01*
X248258824Y-54850304D01*
X248258828Y-54850304D01*
X248417951Y-54836103D01*
X248417955Y-54836102D01*
X248422339Y-54835711D01*
X248426584Y-54834550D01*
X248426588Y-54834549D01*
X248633400Y-54777971D01*
X248633401Y-54777971D01*
X248637651Y-54776808D01*
X248756018Y-54720350D01*
X248835151Y-54682606D01*
X248835156Y-54682603D01*
X248839129Y-54680708D01*
X249020405Y-54550448D01*
X249115014Y-54452820D01*
X249172681Y-54393312D01*
X249175749Y-54390146D01*
X249300250Y-54204868D01*
X249389974Y-54000471D01*
X249442085Y-53783415D01*
X249450386Y-53639438D01*
X264945066Y-53639438D01*
X264971883Y-53861044D01*
X264973176Y-53865249D01*
X264973177Y-53865251D01*
X265014776Y-54000471D01*
X265037519Y-54074400D01*
X265139901Y-54272759D01*
X265275790Y-54449854D01*
X265279046Y-54452817D01*
X265279049Y-54452820D01*
X265386341Y-54550448D01*
X265440893Y-54600086D01*
X265629990Y-54718707D01*
X265634072Y-54720348D01*
X265634076Y-54720350D01*
X265762877Y-54772127D01*
X265837105Y-54801966D01*
X266055690Y-54847233D01*
X266112349Y-54850500D01*
X266256630Y-54850500D01*
X266258824Y-54850304D01*
X266258828Y-54850304D01*
X266417951Y-54836103D01*
X266417955Y-54836102D01*
X266422339Y-54835711D01*
X266426584Y-54834550D01*
X266426588Y-54834549D01*
X266633400Y-54777971D01*
X266633401Y-54777971D01*
X266637651Y-54776808D01*
X266756018Y-54720350D01*
X266835151Y-54682606D01*
X266835156Y-54682603D01*
X266839129Y-54680708D01*
X267020405Y-54550448D01*
X267115014Y-54452820D01*
X267172681Y-54393312D01*
X267175749Y-54390146D01*
X267300250Y-54204868D01*
X267389974Y-54000471D01*
X267442085Y-53783415D01*
X267454934Y-53560562D01*
X267428117Y-53338956D01*
X267386541Y-53203808D01*
X267363778Y-53129815D01*
X267363777Y-53129812D01*
X267362481Y-53125600D01*
X267260099Y-52927241D01*
X267124210Y-52750146D01*
X267120954Y-52747183D01*
X267120951Y-52747180D01*
X266962361Y-52602875D01*
X266962362Y-52602875D01*
X266959107Y-52599914D01*
X266770010Y-52481293D01*
X266765928Y-52479652D01*
X266765924Y-52479650D01*
X266622585Y-52422029D01*
X266562895Y-52398034D01*
X266344310Y-52352767D01*
X266287651Y-52349500D01*
X266143370Y-52349500D01*
X266141176Y-52349696D01*
X266141172Y-52349696D01*
X265982049Y-52363897D01*
X265982045Y-52363898D01*
X265977661Y-52364289D01*
X265973416Y-52365450D01*
X265973412Y-52365451D01*
X265848301Y-52399678D01*
X265762349Y-52423192D01*
X265758371Y-52425089D01*
X265758372Y-52425089D01*
X265564849Y-52517394D01*
X265564844Y-52517397D01*
X265560871Y-52519292D01*
X265379595Y-52649552D01*
X265376522Y-52652723D01*
X265376521Y-52652724D01*
X265282112Y-52750146D01*
X265224251Y-52809854D01*
X265099750Y-52995132D01*
X265010026Y-53199529D01*
X264957915Y-53416585D01*
X264945066Y-53639438D01*
X249450386Y-53639438D01*
X249454934Y-53560562D01*
X249428117Y-53338956D01*
X249386541Y-53203808D01*
X249363778Y-53129815D01*
X249363777Y-53129812D01*
X249362481Y-53125600D01*
X249260099Y-52927241D01*
X249124210Y-52750146D01*
X249120954Y-52747183D01*
X249120951Y-52747180D01*
X248962361Y-52602875D01*
X248962362Y-52602875D01*
X248959107Y-52599914D01*
X248770010Y-52481293D01*
X248765928Y-52479652D01*
X248765924Y-52479650D01*
X248622585Y-52422029D01*
X248562895Y-52398034D01*
X248344310Y-52352767D01*
X248287651Y-52349500D01*
X248143370Y-52349500D01*
X248141176Y-52349696D01*
X248141172Y-52349696D01*
X247982049Y-52363897D01*
X247982045Y-52363898D01*
X247977661Y-52364289D01*
X247973416Y-52365450D01*
X247973412Y-52365451D01*
X247848301Y-52399678D01*
X247762349Y-52423192D01*
X247758371Y-52425089D01*
X247758372Y-52425089D01*
X247564849Y-52517394D01*
X247564844Y-52517397D01*
X247560871Y-52519292D01*
X247379595Y-52649552D01*
X247376522Y-52652723D01*
X247376521Y-52652724D01*
X247282112Y-52750146D01*
X247224251Y-52809854D01*
X247099750Y-52995132D01*
X247010026Y-53199529D01*
X246957915Y-53416585D01*
X246945066Y-53639438D01*
X245800000Y-53639438D01*
X245800000Y-46069748D01*
X253349500Y-46069748D01*
X253361133Y-46128231D01*
X253405448Y-46194552D01*
X253471769Y-46238867D01*
X253481332Y-46240769D01*
X253481334Y-46240770D01*
X253504005Y-46245279D01*
X253530252Y-46250500D01*
X255269748Y-46250500D01*
X255295995Y-46245279D01*
X255318666Y-46240770D01*
X255318668Y-46240769D01*
X255328231Y-46238867D01*
X255394552Y-46194552D01*
X255438867Y-46128231D01*
X255450500Y-46069748D01*
X255450500Y-45309846D01*
X255895483Y-45309846D01*
X255901847Y-45385644D01*
X255903585Y-45395111D01*
X255957674Y-45583743D01*
X255961225Y-45592711D01*
X256050919Y-45767236D01*
X256056142Y-45775341D01*
X256178037Y-45929134D01*
X256184720Y-45936055D01*
X256334164Y-46063241D01*
X256342078Y-46068742D01*
X256513373Y-46164475D01*
X256522201Y-46168332D01*
X256708838Y-46228974D01*
X256718238Y-46231041D01*
X256824432Y-46243704D01*
X256837514Y-46241113D01*
X256838955Y-46239557D01*
X256840000Y-46234803D01*
X256840000Y-46229775D01*
X257040000Y-46229775D01*
X257044122Y-46242460D01*
X257046735Y-46244359D01*
X257049679Y-46244710D01*
X257118385Y-46239424D01*
X257127876Y-46237750D01*
X257316882Y-46184978D01*
X257325862Y-46181496D01*
X257501020Y-46093017D01*
X257509155Y-46087854D01*
X257663787Y-45967042D01*
X257670771Y-45960391D01*
X257798990Y-45811848D01*
X257804546Y-45803973D01*
X257901471Y-45633353D01*
X257905392Y-45624546D01*
X257967334Y-45438346D01*
X257969469Y-45428944D01*
X257983794Y-45315556D01*
X257981294Y-45302455D01*
X257979884Y-45301130D01*
X257974829Y-45300000D01*
X257055680Y-45300000D01*
X257042995Y-45304122D01*
X257040000Y-45308243D01*
X257040000Y-46229775D01*
X256840000Y-46229775D01*
X256840000Y-45315680D01*
X256835878Y-45302995D01*
X256831757Y-45300000D01*
X255910336Y-45300000D01*
X255897651Y-45304122D01*
X255895860Y-45306586D01*
X255895483Y-45309846D01*
X255450500Y-45309846D01*
X255450500Y-45084417D01*
X255896334Y-45084417D01*
X255899016Y-45097484D01*
X255900719Y-45099039D01*
X255905165Y-45100000D01*
X256824320Y-45100000D01*
X256837005Y-45095878D01*
X256840000Y-45091757D01*
X256840000Y-45084320D01*
X257040000Y-45084320D01*
X257044122Y-45097005D01*
X257048243Y-45100000D01*
X257969596Y-45100000D01*
X257982281Y-45095878D01*
X257983854Y-45093713D01*
X257984278Y-45089818D01*
X257975459Y-44999885D01*
X257973589Y-44990437D01*
X257916869Y-44802572D01*
X257913199Y-44793668D01*
X257821072Y-44620401D01*
X257815740Y-44612376D01*
X257691716Y-44460307D01*
X257684922Y-44453466D01*
X257533721Y-44328381D01*
X257525738Y-44322997D01*
X257353114Y-44229660D01*
X257344243Y-44225931D01*
X257156775Y-44167900D01*
X257147341Y-44165963D01*
X257055594Y-44156320D01*
X257042548Y-44159093D01*
X257040881Y-44160945D01*
X257040000Y-44165088D01*
X257040000Y-45084320D01*
X256840000Y-45084320D01*
X256840000Y-44170396D01*
X256835878Y-44157711D01*
X256833563Y-44156028D01*
X256829987Y-44155627D01*
X256747117Y-44163168D01*
X256737654Y-44164974D01*
X256549407Y-44220378D01*
X256540466Y-44223991D01*
X256366573Y-44314899D01*
X256358497Y-44320184D01*
X256205571Y-44443140D01*
X256198687Y-44449881D01*
X256072551Y-44600205D01*
X256067104Y-44608159D01*
X255972573Y-44780111D01*
X255968773Y-44788976D01*
X255909440Y-44976019D01*
X255907435Y-44985450D01*
X255896334Y-45084417D01*
X255450500Y-45084417D01*
X255450500Y-44330252D01*
X255438867Y-44271769D01*
X255394552Y-44205448D01*
X255328231Y-44161133D01*
X255318668Y-44159231D01*
X255318666Y-44159230D01*
X255295995Y-44154721D01*
X255269748Y-44149500D01*
X253530252Y-44149500D01*
X253504005Y-44154721D01*
X253481334Y-44159230D01*
X253481332Y-44159231D01*
X253471769Y-44161133D01*
X253405448Y-44205448D01*
X253361133Y-44271769D01*
X253349500Y-44330252D01*
X253349500Y-46069748D01*
X245800000Y-46069748D01*
X245800000Y-45999000D01*
X245818907Y-45940809D01*
X245868407Y-45904845D01*
X245899000Y-45900000D01*
X246609320Y-45900000D01*
X246622005Y-45895878D01*
X246625000Y-45891757D01*
X246625000Y-45884320D01*
X246825000Y-45884320D01*
X246829122Y-45897005D01*
X246833243Y-45900000D01*
X247639840Y-45900000D01*
X247649462Y-45899052D01*
X247693474Y-45890298D01*
X247711142Y-45882979D01*
X247761082Y-45849611D01*
X247774611Y-45836082D01*
X247807979Y-45786142D01*
X247815298Y-45768474D01*
X247824052Y-45724462D01*
X247825000Y-45714840D01*
X247825000Y-44915680D01*
X247820878Y-44902995D01*
X247816757Y-44900000D01*
X246840680Y-44900000D01*
X246827995Y-44904122D01*
X246825000Y-44908243D01*
X246825000Y-45884320D01*
X246625000Y-45884320D01*
X246625000Y-44771069D01*
X248160164Y-44771069D01*
X248161338Y-44788976D01*
X248169155Y-44908243D01*
X248173392Y-44972894D01*
X248174508Y-44977287D01*
X248174508Y-44977289D01*
X248205673Y-45100000D01*
X248223178Y-45168928D01*
X248307856Y-45352607D01*
X248424588Y-45517780D01*
X248569466Y-45658913D01*
X248737637Y-45771282D01*
X248923470Y-45851122D01*
X249120740Y-45895760D01*
X249322842Y-45903700D01*
X249348361Y-45900000D01*
X249518519Y-45875329D01*
X249518522Y-45875328D01*
X249523007Y-45874678D01*
X249636707Y-45836082D01*
X249710234Y-45811123D01*
X249710237Y-45811121D01*
X249714531Y-45809664D01*
X249891001Y-45710837D01*
X250046505Y-45581505D01*
X250175837Y-45426001D01*
X250274664Y-45249531D01*
X250339678Y-45058007D01*
X250351566Y-44976019D01*
X250368283Y-44860717D01*
X250368700Y-44857842D01*
X250370215Y-44800000D01*
X250369837Y-44795878D01*
X250353201Y-44614840D01*
X251350000Y-44614840D01*
X251350948Y-44624462D01*
X251359702Y-44668474D01*
X251367021Y-44686142D01*
X251400389Y-44736082D01*
X251413918Y-44749611D01*
X251463858Y-44782979D01*
X251481526Y-44790298D01*
X251525538Y-44799052D01*
X251535160Y-44800000D01*
X251884320Y-44800000D01*
X251897005Y-44795878D01*
X251900000Y-44791757D01*
X251900000Y-44784320D01*
X252100000Y-44784320D01*
X252104122Y-44797005D01*
X252108243Y-44800000D01*
X252464840Y-44800000D01*
X252474462Y-44799052D01*
X252518474Y-44790298D01*
X252536142Y-44782979D01*
X252586082Y-44749611D01*
X252599611Y-44736082D01*
X252632979Y-44686142D01*
X252640298Y-44668474D01*
X252649052Y-44624462D01*
X252650000Y-44614840D01*
X252650000Y-43915680D01*
X252645878Y-43902995D01*
X252641757Y-43900000D01*
X252115680Y-43900000D01*
X252102995Y-43904122D01*
X252100000Y-43908243D01*
X252100000Y-44784320D01*
X251900000Y-44784320D01*
X251900000Y-43915680D01*
X251895878Y-43902995D01*
X251891757Y-43900000D01*
X251365680Y-43900000D01*
X251352995Y-43904122D01*
X251350000Y-43908243D01*
X251350000Y-44614840D01*
X250353201Y-44614840D01*
X250352123Y-44603109D01*
X250351708Y-44598591D01*
X250296807Y-44403926D01*
X250207351Y-44222527D01*
X250086335Y-44060467D01*
X249937812Y-43923174D01*
X249915125Y-43908859D01*
X249770594Y-43817667D01*
X249766757Y-43815246D01*
X249578898Y-43740298D01*
X249380526Y-43700839D01*
X249280930Y-43699535D01*
X249182826Y-43698251D01*
X249182821Y-43698251D01*
X249178286Y-43698192D01*
X249173813Y-43698961D01*
X249173808Y-43698961D01*
X249076511Y-43715680D01*
X248978949Y-43732444D01*
X248789193Y-43802449D01*
X248615371Y-43905862D01*
X248611956Y-43908857D01*
X248611953Y-43908859D01*
X248595630Y-43923174D01*
X248463305Y-44039220D01*
X248460497Y-44042782D01*
X248361863Y-44167900D01*
X248338089Y-44198057D01*
X248243914Y-44377053D01*
X248242569Y-44381384D01*
X248242568Y-44381387D01*
X248221301Y-44449881D01*
X248183937Y-44570213D01*
X248160164Y-44771069D01*
X246625000Y-44771069D01*
X246625000Y-44684320D01*
X246825000Y-44684320D01*
X246829122Y-44697005D01*
X246833243Y-44700000D01*
X247809320Y-44700000D01*
X247822005Y-44695878D01*
X247825000Y-44691757D01*
X247825000Y-43885160D01*
X247824052Y-43875538D01*
X247815298Y-43831526D01*
X247807979Y-43813858D01*
X247774611Y-43763918D01*
X247761082Y-43750389D01*
X247711142Y-43717021D01*
X247693474Y-43709702D01*
X247649462Y-43700948D01*
X247639840Y-43700000D01*
X246840680Y-43700000D01*
X246827995Y-43704122D01*
X246825000Y-43708243D01*
X246825000Y-44684320D01*
X246625000Y-44684320D01*
X246625000Y-43715680D01*
X246620878Y-43702995D01*
X246616757Y-43700000D01*
X245899000Y-43700000D01*
X245850741Y-43684320D01*
X251350000Y-43684320D01*
X251354122Y-43697005D01*
X251358243Y-43700000D01*
X251884320Y-43700000D01*
X251897005Y-43695878D01*
X251900000Y-43691757D01*
X251900000Y-43684320D01*
X252100000Y-43684320D01*
X252104122Y-43697005D01*
X252108243Y-43700000D01*
X252634320Y-43700000D01*
X252647005Y-43695878D01*
X252650000Y-43691757D01*
X252650000Y-43669748D01*
X260824500Y-43669748D01*
X260829698Y-43695878D01*
X260830518Y-43700000D01*
X260836133Y-43728231D01*
X260880448Y-43794552D01*
X260946769Y-43838867D01*
X260956332Y-43840769D01*
X260956334Y-43840770D01*
X260979005Y-43845279D01*
X261005252Y-43850500D01*
X262744748Y-43850500D01*
X262770995Y-43845279D01*
X262793666Y-43840770D01*
X262793668Y-43840769D01*
X262803231Y-43838867D01*
X262869552Y-43794552D01*
X262913867Y-43728231D01*
X262919483Y-43700000D01*
X262920302Y-43695878D01*
X262925500Y-43669748D01*
X262925500Y-42909846D01*
X263370483Y-42909846D01*
X263376847Y-42985644D01*
X263378585Y-42995111D01*
X263432674Y-43183743D01*
X263436225Y-43192711D01*
X263525919Y-43367236D01*
X263531142Y-43375341D01*
X263653037Y-43529134D01*
X263659720Y-43536055D01*
X263809164Y-43663241D01*
X263817078Y-43668742D01*
X263988373Y-43764475D01*
X263997201Y-43768332D01*
X264183838Y-43828974D01*
X264193238Y-43831041D01*
X264299432Y-43843704D01*
X264312514Y-43841113D01*
X264313955Y-43839557D01*
X264315000Y-43834803D01*
X264315000Y-43829775D01*
X264515000Y-43829775D01*
X264519122Y-43842460D01*
X264521735Y-43844359D01*
X264524679Y-43844710D01*
X264593385Y-43839424D01*
X264602876Y-43837750D01*
X264791882Y-43784978D01*
X264800862Y-43781496D01*
X264976020Y-43693017D01*
X264984155Y-43687854D01*
X265138787Y-43567042D01*
X265145771Y-43560391D01*
X265273990Y-43411848D01*
X265279546Y-43403973D01*
X265376471Y-43233353D01*
X265380392Y-43224546D01*
X265442334Y-43038346D01*
X265444469Y-43028944D01*
X265458794Y-42915556D01*
X265456294Y-42902455D01*
X265454884Y-42901130D01*
X265449829Y-42900000D01*
X264530680Y-42900000D01*
X264517995Y-42904122D01*
X264515000Y-42908243D01*
X264515000Y-43829775D01*
X264315000Y-43829775D01*
X264315000Y-42915680D01*
X264310878Y-42902995D01*
X264306757Y-42900000D01*
X263385336Y-42900000D01*
X263372651Y-42904122D01*
X263370860Y-42906586D01*
X263370483Y-42909846D01*
X262925500Y-42909846D01*
X262925500Y-42684417D01*
X263371334Y-42684417D01*
X263374016Y-42697484D01*
X263375719Y-42699039D01*
X263380165Y-42700000D01*
X264299320Y-42700000D01*
X264312005Y-42695878D01*
X264315000Y-42691757D01*
X264315000Y-42684320D01*
X264515000Y-42684320D01*
X264519122Y-42697005D01*
X264523243Y-42700000D01*
X265444596Y-42700000D01*
X265457281Y-42695878D01*
X265458854Y-42693713D01*
X265459278Y-42689818D01*
X265450459Y-42599885D01*
X265448589Y-42590437D01*
X265391869Y-42402572D01*
X265388199Y-42393668D01*
X265296072Y-42220401D01*
X265290740Y-42212376D01*
X265166716Y-42060307D01*
X265159922Y-42053466D01*
X265008721Y-41928381D01*
X265000738Y-41922997D01*
X264828114Y-41829660D01*
X264819243Y-41825931D01*
X264631775Y-41767900D01*
X264622341Y-41765963D01*
X264530594Y-41756320D01*
X264517548Y-41759093D01*
X264515881Y-41760945D01*
X264515000Y-41765088D01*
X264515000Y-42684320D01*
X264315000Y-42684320D01*
X264315000Y-41770396D01*
X264310878Y-41757711D01*
X264308563Y-41756028D01*
X264304987Y-41755627D01*
X264222117Y-41763168D01*
X264212654Y-41764974D01*
X264024407Y-41820378D01*
X264015466Y-41823991D01*
X263841573Y-41914899D01*
X263833497Y-41920184D01*
X263680571Y-42043140D01*
X263673687Y-42049881D01*
X263547551Y-42200205D01*
X263542104Y-42208159D01*
X263447573Y-42380111D01*
X263443773Y-42388976D01*
X263384440Y-42576019D01*
X263382435Y-42585450D01*
X263371334Y-42684417D01*
X262925500Y-42684417D01*
X262925500Y-41930252D01*
X262913867Y-41871769D01*
X262869552Y-41805448D01*
X262803231Y-41761133D01*
X262793668Y-41759231D01*
X262793666Y-41759230D01*
X262770995Y-41754721D01*
X262744748Y-41749500D01*
X261005252Y-41749500D01*
X260979005Y-41754721D01*
X260956334Y-41759230D01*
X260956332Y-41759231D01*
X260946769Y-41761133D01*
X260880448Y-41805448D01*
X260836133Y-41871769D01*
X260824500Y-41930252D01*
X260824500Y-43669748D01*
X252650000Y-43669748D01*
X252650000Y-42985160D01*
X252649052Y-42975538D01*
X252640298Y-42931526D01*
X252632979Y-42913858D01*
X252599611Y-42863918D01*
X252586082Y-42850389D01*
X252536142Y-42817021D01*
X252518474Y-42809702D01*
X252474462Y-42800948D01*
X252464840Y-42800000D01*
X252115680Y-42800000D01*
X252102995Y-42804122D01*
X252100000Y-42808243D01*
X252100000Y-43684320D01*
X251900000Y-43684320D01*
X251900000Y-42815680D01*
X251895878Y-42802995D01*
X251891757Y-42800000D01*
X251535160Y-42800000D01*
X251525538Y-42800948D01*
X251481526Y-42809702D01*
X251463858Y-42817021D01*
X251413918Y-42850389D01*
X251400389Y-42863918D01*
X251367021Y-42913858D01*
X251359702Y-42931526D01*
X251350948Y-42975538D01*
X251350000Y-42985160D01*
X251350000Y-43684320D01*
X245850741Y-43684320D01*
X245840809Y-43681093D01*
X245804845Y-43631593D01*
X245800000Y-43601000D01*
X245800000Y-37839438D01*
X246945066Y-37839438D01*
X246971883Y-38061044D01*
X246973176Y-38065249D01*
X246973177Y-38065251D01*
X247014776Y-38200471D01*
X247037519Y-38274400D01*
X247139901Y-38472759D01*
X247275790Y-38649854D01*
X247279046Y-38652817D01*
X247279049Y-38652820D01*
X247386341Y-38750448D01*
X247440893Y-38800086D01*
X247629990Y-38918707D01*
X247634072Y-38920348D01*
X247634076Y-38920350D01*
X247762877Y-38972127D01*
X247837105Y-39001966D01*
X248055690Y-39047233D01*
X248112349Y-39050500D01*
X248256630Y-39050500D01*
X248258824Y-39050304D01*
X248258828Y-39050304D01*
X248417951Y-39036103D01*
X248417955Y-39036102D01*
X248422339Y-39035711D01*
X248426584Y-39034550D01*
X248426588Y-39034549D01*
X248633400Y-38977971D01*
X248633401Y-38977971D01*
X248637651Y-38976808D01*
X248756018Y-38920350D01*
X248835151Y-38882606D01*
X248835156Y-38882603D01*
X248839129Y-38880708D01*
X249020405Y-38750448D01*
X249115014Y-38652820D01*
X249172681Y-38593312D01*
X249175749Y-38590146D01*
X249300250Y-38404868D01*
X249389974Y-38200471D01*
X249442085Y-37983415D01*
X249450386Y-37839438D01*
X264945066Y-37839438D01*
X264971883Y-38061044D01*
X264973176Y-38065249D01*
X264973177Y-38065251D01*
X265014776Y-38200471D01*
X265037519Y-38274400D01*
X265139901Y-38472759D01*
X265275790Y-38649854D01*
X265279046Y-38652817D01*
X265279049Y-38652820D01*
X265386341Y-38750448D01*
X265440893Y-38800086D01*
X265629990Y-38918707D01*
X265634072Y-38920348D01*
X265634076Y-38920350D01*
X265762877Y-38972127D01*
X265837105Y-39001966D01*
X266055690Y-39047233D01*
X266112349Y-39050500D01*
X266256630Y-39050500D01*
X266258824Y-39050304D01*
X266258828Y-39050304D01*
X266417951Y-39036103D01*
X266417955Y-39036102D01*
X266422339Y-39035711D01*
X266426584Y-39034550D01*
X266426588Y-39034549D01*
X266633400Y-38977971D01*
X266633401Y-38977971D01*
X266637651Y-38976808D01*
X266756018Y-38920350D01*
X266835151Y-38882606D01*
X266835156Y-38882603D01*
X266839129Y-38880708D01*
X267020405Y-38750448D01*
X267115014Y-38652820D01*
X267172681Y-38593312D01*
X267175749Y-38590146D01*
X267300250Y-38404868D01*
X267389974Y-38200471D01*
X267442085Y-37983415D01*
X267454934Y-37760562D01*
X267428117Y-37538956D01*
X267386541Y-37403808D01*
X267363778Y-37329815D01*
X267363777Y-37329812D01*
X267362481Y-37325600D01*
X267260099Y-37127241D01*
X267124210Y-36950146D01*
X267120954Y-36947183D01*
X267120951Y-36947180D01*
X266962361Y-36802875D01*
X266962362Y-36802875D01*
X266959107Y-36799914D01*
X266770010Y-36681293D01*
X266765928Y-36679652D01*
X266765924Y-36679650D01*
X266622585Y-36622029D01*
X266562895Y-36598034D01*
X266344310Y-36552767D01*
X266287651Y-36549500D01*
X266143370Y-36549500D01*
X266141176Y-36549696D01*
X266141172Y-36549696D01*
X265982049Y-36563897D01*
X265982045Y-36563898D01*
X265977661Y-36564289D01*
X265973416Y-36565450D01*
X265973412Y-36565451D01*
X265848301Y-36599678D01*
X265762349Y-36623192D01*
X265758371Y-36625089D01*
X265758372Y-36625089D01*
X265564849Y-36717394D01*
X265564844Y-36717397D01*
X265560871Y-36719292D01*
X265379595Y-36849552D01*
X265376522Y-36852723D01*
X265376521Y-36852724D01*
X265282112Y-36950146D01*
X265224251Y-37009854D01*
X265099750Y-37195132D01*
X265010026Y-37399529D01*
X264957915Y-37616585D01*
X264945066Y-37839438D01*
X249450386Y-37839438D01*
X249454934Y-37760562D01*
X249428117Y-37538956D01*
X249386541Y-37403808D01*
X249363778Y-37329815D01*
X249363777Y-37329812D01*
X249362481Y-37325600D01*
X249260099Y-37127241D01*
X249124210Y-36950146D01*
X249120954Y-36947183D01*
X249120951Y-36947180D01*
X248962361Y-36802875D01*
X248962362Y-36802875D01*
X248959107Y-36799914D01*
X248770010Y-36681293D01*
X248765928Y-36679652D01*
X248765924Y-36679650D01*
X248622585Y-36622029D01*
X248562895Y-36598034D01*
X248344310Y-36552767D01*
X248287651Y-36549500D01*
X248143370Y-36549500D01*
X248141176Y-36549696D01*
X248141172Y-36549696D01*
X247982049Y-36563897D01*
X247982045Y-36563898D01*
X247977661Y-36564289D01*
X247973416Y-36565450D01*
X247973412Y-36565451D01*
X247848301Y-36599678D01*
X247762349Y-36623192D01*
X247758371Y-36625089D01*
X247758372Y-36625089D01*
X247564849Y-36717394D01*
X247564844Y-36717397D01*
X247560871Y-36719292D01*
X247379595Y-36849552D01*
X247376522Y-36852723D01*
X247376521Y-36852724D01*
X247282112Y-36950146D01*
X247224251Y-37009854D01*
X247099750Y-37195132D01*
X247010026Y-37399529D01*
X246957915Y-37616585D01*
X246945066Y-37839438D01*
X245800000Y-37839438D01*
X245800000Y-35499000D01*
X245818907Y-35440809D01*
X245868407Y-35404845D01*
X245899000Y-35400000D01*
X268501000Y-35400000D01*
X268559191Y-35418907D01*
G37*
%TD.AperFunction*%
%TD*%
M02*
